<svg width="25" height="25" viewBox="0 0 25 25" fill="none" xmlns="http://www.w3.org/2000/svg">
<path d="M20.8984 9.86328C20.8984 9.55946 20.8008 9.3099 20.6055 9.11458L19.1243 7.64974C18.9182 7.44358 18.674 7.34049 18.3919 7.34049C18.1098 7.34049 17.8657 7.44358 17.6595 7.64974L11.0189 14.2741L7.34049 10.5957C7.13433 10.3895 6.89019 10.2865 6.60807 10.2865C6.32595 10.2865 6.08181 10.3895 5.87565 10.5957L4.39453 12.0605C4.19922 12.2559 4.10156 12.5054 4.10156 12.8092C4.10156 13.1022 4.19922 13.3464 4.39453 13.5417L10.2865 19.4336C10.4926 19.6398 10.7368 19.7428 11.0189 19.7428C11.3118 19.7428 11.5614 19.6398 11.7676 19.4336L20.6055 10.5957C20.8008 10.4004 20.8984 10.1562 20.8984 9.86328ZM25 12.5C25 14.7678 24.4412 16.8593 23.3236 18.7744C22.2059 20.6896 20.6896 22.2059 18.7744 23.3236C16.8593 24.4412 14.7678 25 12.5 25C10.2322 25 8.14073 24.4412 6.22559 23.3236C4.31044 22.2059 2.79405 20.6896 1.67643 18.7744C0.558811 16.8593 0 14.7678 0 12.5C0 10.2322 0.558811 8.14073 1.67643 6.22559C2.79405 4.31044 4.31044 2.79405 6.22559 1.67643C8.14073 0.558811 10.2322 0 12.5 0C14.7678 0 16.8593 0.558811 18.7744 1.67643C20.6896 2.79405 22.2059 4.31044 23.3236 6.22559C24.4412 8.14073 25 10.2322 25 12.5Z" fill="#BDD262"/>
</svg>
