<?xml version="1.0" encoding="utf-8"?>
<!-- Generator: Adobe Illustrator 25.4.1, SVG Export Plug-In . SVG Version: 6.00 Build 0)  -->
<svg version="1.1" id="Capa_1" xmlns="http://www.w3.org/2000/svg" xmlns:xlink="http://www.w3.org/1999/xlink" x="0px" y="0px"
	 viewBox="0 0 1080 1080" style="enable-background:new 0 0 1080 1080;" xml:space="preserve">
<style type="text/css">
	.st0{fill:#F5F5F5;}
	.st1{fill:#37444D;}
	.st2{fill:#62798A;}
	.st3{fill:#566A79;}
	.st4{fill:#263238;}
	.st5{fill:#FFBE9D;}
	.st6{fill:#123B45;}
	.st7{fill:#0EB1BB;}
	.st8{fill:#B78876;}
	.st9{fill:#855C25;}
	.st10{fill:#231F20;}
	.st11{fill:#1683B3;}
	.st12{fill:#FFFFFF;}
	.st13{fill:#27A7DF;}
	.st14{fill:#67CDF5;}
	.st15{fill:#D5545B;}
	.st16{fill:#EC6161;}
	.st17{fill:#FFCC02;}
	.st18{fill:#164552;}
	.st19{fill:#086A70;}
	.st20{fill:#EDEEF0;}
	.st21{fill:#1D4F60;}
	.st22{fill:#D14E54;}
	.st23{fill:#1B1F41;}
	.st24{fill:#F9D01E;}
	.st25{fill:#1D8BB4;}
	.st26{fill:#143E49;}
	.st27{fill:#245160;}
	.st28{fill:#E96348;}
	.st29{fill:#282733;}
	.st30{fill:#F9A427;}
	.st31{fill:#339847;}
	.st32{fill:#B55C27;}
	.st33{fill:#F6F8F7;}
	.st34{fill:#FFFFFF;stroke:#000000;stroke-width:0.1529;stroke-miterlimit:10;}
	.st35{fill:#2973B7;}
	.st36{fill:#FFFFFF;stroke:#1C3664;stroke-width:0.2351;stroke-miterlimit:10;}
	.st37{fill:#F7F7FB;}
	.st38{fill:#383838;}
	.st39{clip-path:url(#SVGID_00000062155848919147261350000004788672568399136685_);}
	.st40{fill:#1374AA;}
	.st41{fill:#8A5D3B;}
	.st42{fill:#F7981D;}
	.st43{fill:#F180AC;}
	.st44{fill:#48C1C6;}
	.st45{fill:#1383B3;}
	.st46{fill:#E2709F;}
	.st47{fill:#073145;}
	.st48{fill:#434343;}
	.st49{fill:#626262;}
	.st50{fill:#767676;}
	.st51{fill:#9F9F9F;}
	.st52{fill:#BEBEBE;}
	.st53{fill:#E1E1E1;}
	.st54{fill:#EFEFEF;}
	.st55{fill:#FAFAFA;}
	.st56{fill:#465662;}
	.st57{fill:#7A8C9B;}
	.st58{fill:#91A1AD;}
	.st59{fill:#B1BCC4;}
	.st60{fill:#D0D6DB;}
	.st61{fill:none;stroke:#263238;stroke-width:9;stroke-linecap:round;stroke-miterlimit:10;}
	.st62{fill:#1C2042;}
	.st63{fill:#3388B8;}
	.st64{fill:#4195D1;}
	.st65{fill:#D0ECF2;stroke:#164552;stroke-width:0.6096;stroke-miterlimit:10;}
	.st66{fill:#273054;}
	.st67{clip-path:url(#SVGID_00000086690007427467195600000011988735914942642603_);}
	.st68{fill:#351C42;}
	.st69{fill:#EC6061;}
	.st70{fill:#BEBDDE;}
	.st71{fill:#F59698;}
	.st72{fill:#532E5C;}
	.st73{fill:#47254F;}
	.st74{fill:#4096D2;}
	.st75{fill:#1B75BB;}
	.st76{fill:#2D7DAA;}
	.st77{fill:#E08085;}
	.st78{fill:#D4545C;}
	.st79{fill:#3E7E64;}
	.st80{fill:#D7B029;}
	.st81{fill:#4D9C80;}
	.st82{fill:#F6BD4B;}
	.st83{fill:#4194D0;}
	.st84{fill:#174552;}
	.st85{fill:#CFEBF2;stroke:#174552;stroke-width:0.6526;stroke-miterlimit:10;}
	.st86{fill:#205060;}
</style>
<g>
	<path class="st4" d="M799.56,242.32c137.64,154.85,124,392.74-30.47,531.35c-154.48,138.6-391.29,125.44-528.93-29.4
		c-137.65-154.84-124-392.74,30.47-531.34C425.11,74.31,661.92,87.48,799.56,242.32z"/>
	<path class="st4" d="M977.86,988.35l-20.58,18.44c-27.16,24.34-63.56,28.29-80.88,8.77l-230.9-260.24
		c-17.32-19.52-9.26-55.4,17.9-79.74l20.58-18.44c27.16-24.34,63.56-28.29,80.87-8.77l230.9,260.24
		C1013.08,928.12,1005.02,964.01,977.86,988.35z"/>
	<path class="st20" d="M750.2,286.61c113.35,127.52,102.12,323.43-25.1,437.58C597.89,838.34,402.87,827.5,289.52,699.98
		C176.16,572.46,187.4,376.55,314.61,262.4C441.83,148.25,636.85,159.1,750.2,286.61z"/>
	<path class="st12" d="M275.9,393.86c9-65.64,58.69-124.16,122.16-143.85c12.66-3.93,26.27-6.41,39.11-3.21
		c12.84,3.2,24.62,13.27,26.4,26.35c2.51,18.45-14.96,34.06-32.75,39.81c-17.79,5.75-37.21,5.51-54.62,12.34
		c-23.49,9.21-41.22,31.77-44.57,56.71c-1.87,13.99,0.45,28.41-2.8,42.15c-3.24,13.74-15.16,27.39-29.13,25.3
		c-13.57-2.02-20.89-17.47-21.37-31.14c-0.48-13.68,3.44-27.41,1.61-40.96"/>
</g>
<g>
	<defs>
		<path id="SVGID_00000138535397466848012960000016694348860982238126_" d="M750.2,286.61c113.35,127.52,102.12,323.43-25.1,437.58
			C597.89,838.34,402.87,827.5,289.52,699.98C176.16,572.46,187.4,376.55,314.61,262.4C441.83,148.25,636.85,159.1,750.2,286.61z"/>
	</defs>
	<clipPath id="SVGID_00000179641927288592556850000003870254921495617182_">
		<use xlink:href="#SVGID_00000138535397466848012960000016694348860982238126_"  style="overflow:visible;"/>
	</clipPath>
	<g style="clip-path:url(#SVGID_00000179641927288592556850000003870254921495617182_);">
		<path class="st19" d="M606.04,346.99c-4.4-23.67-20.97-44.66-42.77-54.16c-21.8-9.51-48.2-7.26-68.13,5.81
			c-19.94,13.07-32.83,36.56-33.27,60.65c-0.12,6.73,0.65,13.53-0.53,20.16c-1.18,6.62-4.84,13.33-11.03,15.73
			c-4.09,1.59-8.66,1.09-12.96,1.89c-9.44,1.75-17.2,10.44-17.99,20.15c-0.62,7.6,2.51,15.76-0.79,22.62
			c-4.66,9.7-18.13,9.78-27.21,15.39c-13.58,8.37-15.29,28.17-10.52,43.56c7.5,24.18,26.82,43.42,49.32,54.44
			c22.49,11.02,47.93,14.52,72.9,14.4c24.97-0.12,49.78-3.7,74.64-6.16c18.06-1.79,36.41-3.03,53.59-8.96
			c17.19-5.92,33.44-17.29,40.92-34.08c7.48-16.79,3.78-39.28-11.31-49.5c-6.13-4.16-13.69-6.18-18.95-11.43
			c-5.16-5.15-7.34-13.17-5.52-20.27c1.72-6.69,7.73-15.74,4.22-25.93c-4.67-13.56,3.43-16.21-32.38-37.85
			c-4.72-2.85,0-16.74-2.68-26.55"/>
		<path class="st5" d="M519.57,406.82c-23.85-1.47-30.34-35.9-26.95-62.56c2.46-19.34,13.61-40.51,33.15-43.49
			c13.78-2.1,27.64,6.05,35.49,17.41c7.85,11.36,10.66,25.37,11.84,39.06c0.93,10.72,0.91,21.85-3.25,31.79
			c-4.16,9.94-12.45,18.24-23.33,19.05c0,10.52,3.84,41.23,3.84,51.75c42.47,18.79,81.87,21.57,116.62,52.09
			c-41.07,7-17.99,108.86-145.06,107.29c-96.37-1.19-82.59-102.21-119.2-114.03c4.88-11.24,73.68-31.28,113.61-46.39
			C516.37,441.44,518.59,424.16,519.57,406.82"/>
		<path class="st7" d="M442.81,480.36c-161.29,32.74-156.05,287.7-110.59,304.36c72.6,26.6,51.59-8.03,67.38-29.04
			c18.89-25.14,24.48-136.88,43.37-162.02c1.85-2.46,0.99-14.14,1.89-17.39c1.09-3.99,6.03-9.54,5.41-13.7
			c-2.61-17.59-3.11-81.57-10.34-79.76"/>
		<path class="st7" d="M463.56,475.61c2.67,15.63,7.95,37.39,14.68,51.79c4.19,8.97,9.28,17.77,16.75,24.35
			c20.32,17.91,54.42,13.75,74.36-4.58c19.94-18.33,27.24-47.01,25.58-73.83c6.14,1.31,20.43,4.19,26.57,5.51
			c-3.13,14.77-3.3,40.59-5.14,55.58c-7.56,61.41,13.7,68.89,14.11,73.09c4.43,45.28,5.75,72.06,20.54,107.88
			c-76.16,22.29-169.51,16.94-231.22,10.03c6.57-45.52,8.84-70.25,7.79-119.31c9.11-4.11,20.43-27.78,20.37-64.56
			c-0.03-19.24-8.32-40.25-11.14-59.3C442.88,480.21,457.14,475.99,463.56,475.61"/>
		<path class="st19" d="M491.17,319.82c-4.81,3.81-1.75,9.36,1.58,14.48c3.33,5.12,9.36,7.99,15.4,9.23
			c6.04,1.24,12.27,1.09,18.42,1.56c25.1,1.94,50.14,16.08,60.07,38.89c2.85-25.79-6.3-52.64-24.38-71.49
			c-7.37-7.69-16.79-14.33-27.5-15.05c-6.69-0.45-13.3,1.45-19.61,3.68C505.23,304.63,494.65,310,491.17,319.82"/>
		<path class="st5" d="M494.44,364.99c-3.21-0.34-6.66-0.02-9.32,1.8c-2.66,1.81-4.22,5.42-2.93,8.34c1.01,2.28,3.5,3.66,5.99,4.05
			c2.5,0.39,5.04-0.06,7.53-0.49"/>
		<path class="st5" d="M572.42,365.53c3.22-0.3,6.66,0.07,9.29,1.92c2.63,1.85,4.15,5.48,2.81,8.38c-1.05,2.27-3.55,3.61-6.05,3.97
			c-2.5,0.35-5.04-0.12-7.52-0.6"/>
		<path class="st7" d="M621.49,478.84c78.07,4.93,171.06,231.07,108.55,293.51c-21.96,21.93-90.31,33.73-79.05-19.2
			c6.54-30.75-8.99-126.74-29.29-150.76c-1.99-2.35-12.7-8.71-13.78-11.91c-1.32-3.92-10.11-24.14-9.73-28.33
			C599.8,544.44,614.18,477.44,621.49,478.84"/>
		<rect x="363.99" y="608.5" class="st19" width="326.41" height="201.33"/>
		<path class="st5" d="M340.19,689.46c-6.49,15.27,0.86,40.08,6.79,56.07c2.81,7.56,6.76,15.16,13.54,19.52
			c6.78,4.37,17,4.24,21.93-2.14c2.24-2.9,3.11-6.6,3.84-10.19c1.2-5.91,2.18-11.86,2.93-17.84c1.35-10.72,1.96-21.78-1.04-32.16
			c-3-10.38-10.17-20.06-20.37-23.66C357.6,675.46,344.56,679.57,340.19,689.46"/>
		<path class="st5" d="M714.8,695.25c1.92,16.94-0.2,34.33-6.13,50.32c-2.81,7.55-6.76,15.16-13.54,19.52
			c-6.78,4.37-17,4.24-21.93-2.15c-2.24-2.9-3.11-6.6-3.83-10.19c-1.2-5.91-2.18-11.86-2.93-17.84
			c-1.35-10.72-1.96-21.78,1.04-32.16c3-10.38,10.17-20.06,20.37-23.66C698.05,675.5,712.91,678.34,714.8,695.25"/>
		<g>
			<path class="st10" d="M504.35,366.93c0.63,1.66,1.43,3.6,2.85,4.75c1.31,1.07,3.36,1.15,4.98,1.12c3.64-0.07,6.26-2.61,6.26-6.25
				c0-1.11-1.74-1.11-1.74,0c0,3.17-2.36,4.66-5.42,4.5c-3.13-0.17-4.23-1.91-5.25-4.58C505.64,365.44,503.95,365.89,504.35,366.93
				L504.35,366.93z"/>
		</g>
		<g>
			<path class="st10" d="M545.9,366.62c0.95,3.76,4.33,6.53,8.35,5.97c3.74-0.52,6.61-3.77,5.95-7.54
				c-0.19-1.09-1.87-0.63-1.68,0.46c0.55,3.16-2.53,5.49-5.46,5.42c-2.84-0.07-4.83-2.17-5.48-4.77
				C547.31,365.08,545.63,365.54,545.9,366.62L545.9,366.62z"/>
		</g>
		<g>
			<path class="st10" d="M501.76,364.76c1.35-3.96,4.67-6.85,8.8-7.64c1.1-0.21,0.64-1.88-0.46-1.67
				c-4.74,0.91-8.48,4.35-10.02,8.85C499.71,365.36,501.4,365.81,501.76,364.76L501.76,364.76z"/>
		</g>
		<g>
			<path class="st10" d="M554.13,356.96c3.44,0.65,6.36,2.39,8.6,5.05c0.72,0.86,1.95-0.37,1.23-1.22c-2.41-2.87-5.66-4.8-9.37-5.49
				C553.5,355.09,553.03,356.75,554.13,356.96L554.13,356.96z"/>
		</g>
		<g>
			<path class="st10" d="M529.9,368.93c0.08,4.86,0.16,9.71,0.24,14.57c0.05,3.21,0.4,3.7,3.76,3.63c1.12-0.02,1.12-1.75,0-1.73
				c-3.02,0.06-2.07-5.42-2.11-7.6c-0.05-2.96-0.1-5.91-0.15-8.87C531.63,367.81,529.89,367.81,529.9,368.93L529.9,368.93z"/>
		</g>
		<g>
			<path class="st10" d="M530.28,399.34c4.7,0.72,9.18-0.66,12.65-3.89c-0.5-0.2-0.99-0.41-1.49-0.61c0.19,1.7-0.5,3.09-2.05,3.87
				c-1,0.51-0.12,2,0.88,1.49c2.07-1.05,3.16-3.07,2.91-5.36c-0.08-0.73-0.9-1.16-1.49-0.61c-2.98,2.77-6.9,4.06-10.95,3.44
				C529.64,397.5,529.17,399.17,530.28,399.34L530.28,399.34z"/>
		</g>
		<g>
			<path class="st10" d="M492.57,373.83c-1.36-0.94-3.09-0.98-4.54-0.24c-1,0.51-0.12,2,0.88,1.49c0.93-0.48,1.94-0.34,2.78,0.24
				C492.61,375.96,493.49,374.47,492.57,373.83L492.57,373.83z"/>
		</g>
		<g>
			<path class="st10" d="M491.9,373.93c-0.86,0.44-1.56,1.08-2.14,1.85c-0.28,0.37-0.06,0.97,0.31,1.18
				c0.45,0.26,0.91,0.07,1.19-0.31c0.4-0.53,0.93-0.93,1.52-1.23c0.42-0.22,0.54-0.8,0.31-1.18
				C492.85,373.82,492.32,373.71,491.9,373.93L491.9,373.93z"/>
		</g>
		<g>
			<path class="st10" d="M574.17,374.83c1.44-0.49,2.93-0.48,4.33,0.16c1.01,0.46,1.9-1.03,0.88-1.49
				c-1.82-0.83-3.77-0.98-5.68-0.33C572.65,373.52,573.1,375.2,574.17,374.83L574.17,374.83z"/>
		</g>
		<g>
			<path class="st10" d="M573.14,374.94c0.84,0.76,1.67,1.51,2.51,2.27c0.83,0.75,2.06-0.47,1.23-1.22
				c-0.84-0.76-1.67-1.51-2.51-2.27C573.54,372.97,572.31,374.19,573.14,374.94L573.14,374.94z"/>
		</g>
	</g>
</g>
</svg>
