<?xml version="1.0" encoding="utf-8"?>
<!-- Generator: Adobe Illustrator 25.4.1, SVG Export Plug-In . SVG Version: 6.00 Build 0)  -->
<svg version="1.1" id="Capa_1" xmlns="http://www.w3.org/2000/svg" xmlns:xlink="http://www.w3.org/1999/xlink" x="0px" y="0px"
	 viewBox="0 0 1080 1080" style="enable-background:new 0 0 1080 1080;" xml:space="preserve">
<style type="text/css">
	.st0{fill:#F5F5F5;}
	.st1{fill:#37444D;}
	.st2{fill:#62798A;}
	.st3{fill:#566A79;}
	.st4{fill:#263238;}
	.st5{fill:#FFBE9D;}
	.st6{fill:#123B45;}
	.st7{fill:#0EB1BB;}
	.st8{fill:#B78876;}
	.st9{fill:#855C25;}
	.st10{fill:#231F20;}
	.st11{fill:#1683B3;}
	.st12{fill:#FFFFFF;}
	.st13{fill:#27A7DF;}
	.st14{fill:#67CDF5;}
	.st15{fill:#D5545B;}
	.st16{fill:#EC6161;}
	.st17{fill:#FFCC02;}
	.st18{fill:#164552;}
	.st19{fill:#086A70;}
	.st20{fill:#EDEEF0;}
	.st21{fill:#1D4F60;}
	.st22{fill:#D14E54;}
	.st23{fill:#1B1F41;}
	.st24{fill:#F9D01E;}
	.st25{fill:#1D8BB4;}
	.st26{fill:#143E49;}
	.st27{fill:#245160;}
	.st28{fill:#E96348;}
	.st29{fill:#282733;}
	.st30{fill:#F9A427;}
	.st31{fill:#339847;}
	.st32{fill:#B55C27;}
	.st33{fill:#F6F8F7;}
	.st34{fill:#FFFFFF;stroke:#000000;stroke-width:0.1529;stroke-miterlimit:10;}
	.st35{fill:#2973B7;}
	.st36{fill:#FFFFFF;stroke:#1C3664;stroke-width:0.2351;stroke-miterlimit:10;}
	.st37{fill:#F7F7FB;}
	.st38{fill:#383838;}
	.st39{clip-path:url(#SVGID_00000003821553051331545730000014634993314516582335_);}
	.st40{fill:#1374AA;}
	.st41{fill:#8A5D3B;}
	.st42{fill:#F7981D;}
	.st43{fill:#F180AC;}
	.st44{fill:#48C1C6;}
	.st45{fill:#1383B3;}
	.st46{fill:#E2709F;}
	.st47{fill:#073145;}
	.st48{fill:#434343;}
	.st49{fill:#626262;}
	.st50{fill:#767676;}
	.st51{fill:#9F9F9F;}
	.st52{fill:#BEBEBE;}
	.st53{fill:#E1E1E1;}
	.st54{fill:#EFEFEF;}
	.st55{fill:#FAFAFA;}
	.st56{fill:#465662;}
	.st57{fill:#7A8C9B;}
	.st58{fill:#91A1AD;}
	.st59{fill:#B1BCC4;}
	.st60{fill:#D0D6DB;}
	.st61{fill:none;stroke:#263238;stroke-width:9;stroke-linecap:round;stroke-miterlimit:10;}
	.st62{fill:#1C2042;}
	.st63{fill:#3388B8;}
	.st64{fill:#4195D1;}
	.st65{fill:#D0ECF2;stroke:#164552;stroke-width:0.6096;stroke-miterlimit:10;}
	.st66{fill:#273054;}
	.st67{clip-path:url(#SVGID_00000025427317454025278290000015373290645427311247_);}
	.st68{fill:#351C42;}
	.st69{fill:#EC6061;}
	.st70{fill:#BEBDDE;}
	.st71{fill:#F59698;}
	.st72{fill:#532E5C;}
	.st73{fill:#47254F;}
	.st74{fill:#4096D2;}
	.st75{fill:#1B75BB;}
	.st76{fill:#2D7DAA;}
	.st77{fill:#E08085;}
	.st78{fill:#D4545C;}
	.st79{fill:#3E7E64;}
	.st80{fill:#D7B029;}
	.st81{fill:#4D9C80;}
	.st82{fill:#F6BD4B;}
	.st83{fill:#4194D0;}
	.st84{fill:#174552;}
	.st85{fill:#CFEBF2;stroke:#174552;stroke-width:0.6526;stroke-miterlimit:10;}
	.st86{fill:#205060;}
</style>
<path class="st0" d="M349.95,873.73c-48.12-2.73-29.8-18.47-56.75-58.42c-26.95-39.95-45.38-85.47-75.23-123.31
	c-24.23-30.72-55.31-55.48-79.82-85.98c-34.34-42.73-54.47-94.99-71.24-147.18c-13.94-43.37-26.04-89.37-17.16-134.05
	c19.64-98.84,143.16-151.75,238.86-120.17c26.4,8.71,51.77,22.43,79.53,24.01c66.06,3.76,128.61-61.52,190.7-38.66
	c59.21,21.8,68.96,107.1,123.2,139.33c59.51,35.36,135.14-10.48,203.85-2.04c137.89,16.95,116.56,150.38,99.87,184.42
	c-12.56,25.61-33.51,56.61-15.62,78.82c8.81,10.94,23.96,14.08,35.65,21.86c27.75,18.48,30.1,60.85,13.59,89.81
	c-16.51,28.96-46.41,47.37-75.63,63.42C829.15,828.55,705.29,874.59,577.4,901.77c-84.3,17.91-182.95,23.89-245.77-35.1"/>
<g>
	<g>
		<g>
			<path class="st1" d="M442.75,911.47l-11.42,2.01c-21.23,3.73-41.65-10.58-45.38-31.8l-42.07-239.15
				c-3.73-21.23,10.58-41.65,31.8-45.38l11.42-2.01c21.23-3.73,41.65,10.58,45.38,31.8l42.07,239.15
				C478.29,887.31,463.98,907.74,442.75,911.47z"/>
			<path class="st1" d="M488.93,534.2c-5.7,71.99-68.67,125.73-140.66,120.03c-71.99-5.7-125.73-68.67-120.03-140.66
				c5.7-71.99,68.67-125.73,140.66-120.03C440.89,399.23,494.63,462.21,488.93,534.2z"/>
			<path class="st2" d="M354.4,393.21c341.16-52.33,495.41-257.58,503.98-254.94c9.59,2.94,59.26,380.67,76.08,562.35
				c-261.13-109.22-529.7-54.44-529.7-54.44C381.73,611.49,358.12,475.2,354.4,393.21"/>
			<path class="st3" d="M942.3,414.5c20.04,154.86,16.53,282.96-7.84,286.12c-24.37,3.15-60.38-119.83-80.42-274.69
				c-20.04-154.86-16.53-282.96,7.84-286.12C886.25,136.65,922.25,259.64,942.3,414.5z"/>
			<path class="st1" d="M849.34,366.92c47.56-10.46,105.35-31.37,120.44,51.65c13.09,72-55.86,77.21-103.79,85.83
				C865.99,504.4,842.45,368.43,849.34,366.92z"/>
		</g>
		<g>
			<g>
				<path class="st4" d="M770.16,613.84c8.5,37.87,17,75.73,25.5,113.6c13.44,59.9,26.89,119.79,40.33,179.69
					c3.1,13.81,6.2,27.63,9.3,41.44c0.88,3.94,6.94,2.27,6.06-1.67c-8.5-37.87-17-75.73-25.5-113.6
					c-13.44-59.9-26.88-119.79-40.33-179.69c-3.1-13.81-6.2-27.63-9.3-41.44C775.33,608.23,769.28,609.9,770.16,613.84
					L770.16,613.84z"/>
			</g>
			<g>
				<path class="st4" d="M878.75,613.84c8.5,37.87,17,75.73,25.5,113.6c13.44,59.9,26.89,119.79,40.33,179.69
					c3.1,13.81,6.2,27.63,9.3,41.44c0.88,3.94,6.94,2.27,6.06-1.67c-8.5-37.87-17-75.73-25.5-113.6
					c-13.44-59.9-26.88-119.79-40.33-179.69c-3.1-13.81-6.2-27.63-9.3-41.44C883.92,608.23,877.86,609.9,878.75,613.84
					L878.75,613.84z"/>
			</g>
			<g>
				<path class="st4" d="M782.95,661.09c31.56-0.6,63.12-1.19,94.67-1.79c4.49-0.08,8.98-0.17,13.46-0.25
					c4.04-0.08,4.05-6.36,0-6.28c-31.56,0.6-63.12,1.19-94.67,1.79c-4.49,0.08-8.98,0.17-13.46,0.25
					C778.92,654.89,778.9,661.17,782.95,661.09L782.95,661.09z"/>
			</g>
			<g>
				<g>
					<path class="st4" d="M794.3,714.59c31.56-0.6,63.12-1.19,94.67-1.79c4.49-0.08,8.98-0.17,13.46-0.25
						c4.04-0.08,4.05-6.36,0-6.28c-31.56,0.6-63.12,1.19-94.67,1.79c-4.49,0.08-8.98,0.17-13.47,0.25
						C790.26,708.39,790.25,714.67,794.3,714.59L794.3,714.59z"/>
				</g>
			</g>
			<g>
				<path class="st4" d="M808.7,782.1c31.56-0.6,63.12-1.19,94.67-1.79c4.49-0.08,8.98-0.17,13.46-0.25c4.04-0.08,4.05-6.36,0-6.28
					c-31.56,0.6-63.12,1.19-94.67,1.79c-4.49,0.08-8.98,0.17-13.46,0.25C804.66,775.9,804.65,782.18,808.7,782.1L808.7,782.1z"/>
			</g>
			<g>
				<g>
					<path class="st4" d="M822.98,844.25c31.56-0.6,63.12-1.19,94.68-1.79c4.49-0.08,8.98-0.17,13.46-0.25
						c4.04-0.08,4.05-6.36,0-6.28c-31.56,0.6-63.12,1.19-94.67,1.79c-4.49,0.09-8.98,0.17-13.46,0.25
						C818.95,838.05,818.93,844.33,822.98,844.25L822.98,844.25z"/>
				</g>
			</g>
			<g>
				<path class="st4" d="M837.02,906.4c31.56-0.6,63.12-1.19,94.68-1.79c4.49-0.08,8.98-0.17,13.46-0.25c4.04-0.08,4.05-6.36,0-6.28
					c-31.56,0.6-63.12,1.19-94.67,1.79c-4.49,0.09-8.98,0.17-13.46,0.25C832.99,900.2,832.97,906.48,837.02,906.4L837.02,906.4z"/>
			</g>
			<path class="st4" d="M842.54,524.81c-4.63,12.66-16.66,39.39-36.19,39.39c-11.92,0-21.47-33.69-21.9-52.41
				c-7.96,3.95-16.82,6.16-25.75,6.43c2.61,20.2,5.6,41.35,17.86,57.83c2.34,3.14,4.97,6.05,7.68,8.89c2.7,2.82,5.5,5.6,8.85,7.65
				c7.86,4.82,18,5.09,26.88,2.46c8.88-2.64,16.7-7.9,23.9-13.62c0.44-0.35,0.9-0.72,1.13-1.23c0.27-0.58,0.21-1.25,0.15-1.88
				c-1.75-17.86-0.12-35.52-1.87-53.38L842.54,524.81z"/>
			<path class="st5" d="M829.41,686.28c6.3,48.83,10.8,97.95,13.46,147.21c-4.46,1.51-8.92,3.02-13.38,4.53
				c12.93-0.65,16.97-0.86,29.9-1.51c-0.37-50.02,6.55-100.47,2.95-150.32L829.41,686.28z"/>
			<path class="st5" d="M857.29,685.8c21.28,41.59,34.82,97.79,47.63,143.62c-4.78,4.5-4.29,3.14-8.21,8.6
				c10.59-1.81,12.51-2.74,23.17-6.98c-8.92-48.07-11.19-110.18-20.11-158.25c-14.99,5.12-29.98,10.24-44.96,15.35L857.29,685.8z"/>
			<path class="st4" d="M838.22,497.8c-4.45-2.33-5.88-8.42-5.08-13.29c0.8-4.87,4.43-9.06,8.98-11.2c4.55-2.14,9.9-2.34,14.8-1.17
				c2.32,0.56,4.6,1.43,6.49,2.87c3.81,2.9,6.75,8.3,7.88,12.88c1.01,4.1,0.49,7.76-0.44,11.88c-0.92,4.12-3.75,8.04-7.86,9.31
				c-2.88,0.89-6.05,0.41-8.83-0.73c-2.78-1.14-5.24-2.9-7.67-4.64C843.74,501.75,840.98,499.78,838.22,497.8L838.22,497.8z"/>
			<path class="st4" d="M869.78,495.47c0.5-1.06,1.82-1.47,3.01-1.56c2.7-0.2,5.47,0.69,7.51,2.42c2.04,1.73,3.34,4.28,3.51,6.92
				c0.08,1.29-0.09,2.6-0.64,3.78c-1.54,3.29-4.94,5.97-8.64,6.25c-2.04,0.16-4.09,0.78-6.95-1.14c-1.69-1.13-3.32-2.94-3.98-4.83
				c-0.45-1.3-0.4-2.72-0.11-4.07c0.85-4,3.81-7.51,7.67-9.09c0.06-0.02,0.12-0.05,0.18-0.07L869.78,495.47z"/>
			<path class="st5" d="M858.11,484.69c0.75-4.15-4.53-6.13-8.83-6.44c-4.3-0.31-7.08,0.37-9.27,4c-2.19,3.63-2.75,7.99-2.68,12.2
				c0.1,5.29,1.57,11.23,6.25,13.9c5.66,3.23,13.49-0.41,16.27-6.2C862.62,496.35,860.82,490.51,858.11,484.69L858.11,484.69z"/>
			<path class="st5" d="M851.09,506.53c-0.36,2.68-0.32,8.2-0.68,10.88c-0.12,0.87-3.6,3.86-4.22,4.39
				c-5.53,4.66-6.81,11.68-8.86,18.77c11.47,0.49,14.79-4.4,26.23-5.29c-1.47-5.61-3.8-12.17-6.02-17.54
				c-1.59-3.85-2.52-10.43-2.52-10.43c-0.21-0.39-0.56-0.85-1-0.75c-0.44,0.1-0.03,0.97,0.2,0.59L851.09,506.53z"/>
			<path class="st4" d="M836.64,483.86c0.65,1.58,3.76,2.97,5.43,3.46c1.67,0.48,3.42,0.67,5.15,0.78
				c9.8,0.62,12.19,9.04,13.11,16.56c2.29-3.18,7.12-14.01,3.28-20.3c-2.87-4.71-6.85-7.83-12.38-8.83
				C845.72,474.52,836.52,475.95,836.64,483.86L836.64,483.86z"/>
			<path class="st5" d="M856.33,496.9c0.41-1.33,2.1-2.08,3.44-1.61c1.34,0.47,2.15,1.99,1.91,3.36c-0.34,1.93-2.76,3.21-4.6,2.44
				L856.33,496.9z"/>
			<g>
				<path class="st6" d="M841.58,493.78c0.24,2.04,0,3.99-0.73,5.91c-0.14,0.37,0.1,0.71,0.38,0.92c0.64,0.49,1.31,0.68,2.11,0.65
					c1.05-0.04,1.05-1.67,0-1.63c-0.55,0.02-0.86-0.1-1.28-0.43c0.13,0.31,0.25,0.62,0.38,0.92c0.77-2.05,1.04-4.17,0.79-6.35
					C843.1,492.75,841.46,492.74,841.58,493.78L841.58,493.78z"/>
			</g>
			<g>
				<path class="st6" d="M837.59,494.96c0.54,1.55,2.72,1.89,3.48,0.3c0.45-0.94-0.96-1.77-1.41-0.83
					c-0.09,0.19-0.37,0.44-0.49,0.09C838.82,493.54,837.24,493.96,837.59,494.96L837.59,494.96z"/>
			</g>
			<g>
				<path class="st6" d="M844.65,493.66c-1.78,0.75,0.02,2.73,1.16,3.06c1.63,0.46,3.07-0.62,3.67-2.07c0.4-0.97-1.18-1.4-1.58-0.43
					c-0.19,0.46-0.62,0.88-1.12,0.96c-0.21,0.04-0.44,0.01-0.64-0.06c-0.08-0.03-0.6-0.36-0.59-0.4c-0.19,0.19-0.38,0.38-0.57,0.57
					c0.03-0.01,0.07-0.03,0.1-0.04C846.04,494.84,845.62,493.26,844.65,493.66L844.65,493.66z"/>
			</g>
			<g>
				<path class="st6" d="M842.77,504.73c3.41,1.16,7.05,0.18,9.28-2.67c0.64-0.82-0.51-1.99-1.16-1.16
					c-1.9,2.43-4.76,3.25-7.69,2.25C842.21,502.81,841.78,504.39,842.77,504.73L842.77,504.73z"/>
			</g>
			<path class="st4" d="M847.29,519.59c-0.6,5.39-3.05,15.46-4.29,20.75c3.57-8.34,11.47-13.67,15.72-21.8
				c8.87,8.48,9.78,20.16,9.15,32.26c-0.63,12.1,2.35,15.44,2.34,27.56c-9.55,0-26.6,0.49-36.06,0.33
				c-1.2-6.82-1.55-11.64-1.45-23.74c0.05-6.59,1.15-13.19,3.24-19.45C838.02,529.25,841.71,523.31,847.29,519.59
				c-0.74,1.5-1.48,2.99-2.23,4.49L847.29,519.59z"/>
			<g>
				<path class="st7" d="M846.4,519.89c-1.78,8.26-3.44,16.54-4.99,24.84c0.53,0,1.05,0,1.58,0c-0.83-3.47-4.03-10.66-0.45-13.1
					c0.33-0.23,0.44-0.54,0.38-0.92c-0.27-1.73-1.3-4.91-0.66-6.65c0.72-1.96,3.45-2.59,5.15-3.17c0.99-0.34,0.57-1.92-0.43-1.58
					c-1.97,0.67-3.77,1.66-5.73,2.37c-0.35,0.12-0.59,0.41-0.6,0.79c-0.03,1.93,0.23,3.82,0.26,5.73c0.05,2.63-0.33,1.67-1.56,3.63
					c-0.13,0.21-0.45,0.3-0.56,0.54c-0.36,0.76-0.03,1.4,0.09,2.2c0.52,3.52,1.71,7.13,2.54,10.59c0.18,0.76,1.43,0.8,1.58,0
					c1.55-8.31,3.21-16.59,4.99-24.84C848.2,519.3,846.62,518.86,846.4,519.89L846.4,519.89z"/>
			</g>
			<g>
				<path class="st7" d="M843.78,543.27c2.69-9.61,9.94-16.46,15.7-24.28c-0.47,0-0.94,0-1.41,0c0.56,0.83,1.44,1.83,1.72,2.8
					c0.72,2.49-0.53,3.36-2.27,4.69c-1.78,1.37-3.51,2.8-5.21,4.27c-0.32,0.27-0.32,0.88,0,1.16c3.98,3.4-8.15,11.06-10.73,12.99
					c-0.83,0.62-0.02,2.04,0.83,1.41c4.72-3.53,9.16-7.33,13.35-11.48c0.27-0.27,0.29-0.66,0.13-0.99c-0.7-1.4-1.37-1.71-1.01-3.15
					c0.46-1.84,5.53-4.35,7.24-5.56c0.28-0.2,0.5-0.56,0.38-0.92c-0.76-2.19-1.7-4.11-3.01-6.04c-0.37-0.54-1.04-0.51-1.41,0
					c-5.85,7.95-13.13,14.91-15.86,24.67C841.92,543.85,843.5,544.28,843.78,543.27L843.78,543.27z"/>
			</g>
			<path class="st7" d="M835.78,581.51c-11.34,39.4-19.51,99.31-17.13,135.23c12.15,5.59,41,6.18,54.36,4.8
				c28.39-2.92,43.28-11.32,55.86-16.49c-3.4-41.7-27.8-90.15-56.3-125.04C862.92,580.13,845.43,581.38,835.78,581.51L835.78,581.51
				z"/>
			<path class="st5" d="M775.03,632.31c-5.96-1.01-11.82-2.55-17.5-4.59c-1.02,1.62-0.02,3.72,1.16,5.24c1.18,1.51,2.63,3.1,2.54,5
				c-4.4-0.92-8.8-1.83-13.2-2.75c-1.63-0.34-3.39-0.67-4.93-0.04c-2.49,1.03-3.33,4.31-2.38,6.78c0.95,2.47,3.19,4.24,5.48,5.65
				c9.48,5.82,21.59,7.35,32.27,4.07c-0.22-7.09-1.54-14.15-3.89-20.86L775.03,632.31z"/>
			<path class="st5" d="M760.87,518.05c-1.37-5.75-3.18-15.88-5.59-21.29c1.6-1.08,3.81-0.23,5.42,0.83
				c1.62,1.06,1.38,2.59,3.32,2.39c0.42-3.81-0.44-8.67-1.63-12.91c-0.44-1.57-0.88-3.27-0.32-4.8c0.91-2.49,4.22-3.49,6.8-2.7
				c2.58,0.79,4.52,2.87,6.09,5.02c6.49,8.9,6.17,19.1,6.52,28.91C777.35,514.78,766.29,518.47,760.87,518.05L760.87,518.05z"/>
			<path class="st4" d="M864.23,524.81c20.38,15.1,28.34,44.24,18.38,67.24c-6.46,14.92-19.16,26.45-32.82,35.64
				c-21.77,14.64-46.91,24.48-73.02,28.57c-0.46-9.54-1.53-19.06-3.19-28.47c24.79-3.13,47.9-16.29,63.73-35.18
				c15.83-18.88,24.43-43.21,24.98-67.6L864.23,524.81z"/>
			<path class="st7" d="M838.07,834.38c-4.49,1.49-8.99,3.39-12.72,5.77c4.38,1.67,30.31,0.26,34.34,0.34
				c0.41-2.23,0.42-4.53,0.03-6.76c-0.51,1.24-2.12,1.6-3.48,1.7C836.14,836.8,838.37,834.42,838.07,834.38L838.07,834.38z"/>
			<path class="st7" d="M900.39,832.75c-1.44,0.38,0.95,7.33,19.49-5.38c1.29,1.75,2.13,3.74,3.42,5.49
				c-2.21,1.35-4.52,3.12-6.73,4.47c-1.88,1.15-4.18,1.64-6.21,2.5c-6.09,2.59-14.99,2.53-19.65,2.08
				C891.19,840.96,897.98,834.11,900.39,832.75L900.39,832.75z"/>
		</g>
		<g>
			<path class="st8" d="M167.13,899.81c0.01,4.66,0.02,9.32,0.02,13.97c0,1.71,0.02,3.5,0.8,5.02c0.51,1.01,1.32,1.84,2.14,2.63
				c5.28,5.14,11.19,9.63,17.57,13.32c3.39,1.97,7.25,3.77,11.11,3.02c1.2-2.54-0.05-5.52-1.48-7.94c-1.91-3.21-4.2-6.21-6.79-8.91
				c-1.79-1.86-3.76-3.63-4.96-5.93c-1.27-2.44-1.54-5.26-1.65-8.01c-0.12-2.88-0.08-5.77,0.12-8.64
				C178.16,898.65,172.89,898.78,167.13,899.81L167.13,899.81z"/>
			<g>
				<path class="st4" d="M166.77,913.21c-0.87,2.04-1.48,4.14-0.36,6.06c1.12,1.92,4.24,4.27,5.91,5.74
					c4.66,4.11,9.46,8.13,14.87,11.2c2.92,1.66,6.1,3.05,9.46,3.18c0.63,0.03,1.27,0,1.85-0.24c1.16-0.49,1.8-1.77,2-3.02
					c0.5-3.23-1.34-6.32-3.12-9.06c-1.81-2.78-3.78-5.67-6.78-7.08c1.33,1.57,3.86,3.39,3.03,5.28
					C190.41,932.66,172.98,919.36,166.77,913.21L166.77,913.21z"/>
				<path class="st7" d="M166.04,904.64c5.87,1.13,12.39,1.43,18.36,1.24c-0.5,4.11,1.17,8.45,4.16,11.31
					c1.93,1.84,2.89,3.41,4.35,5.3c0.6,0.78,1.23,1.97,1.38,2.95c0.31,2.08-1.78,3.89-3.88,4.09c-2.1,0.19-4.11-0.75-6-1.67
					c-6.08-2.97-12.37-6.21-16.37-11.66c-0.42-0.57-0.81-1.17-1.04-1.83c-0.27-0.8-0.29-1.66-0.31-2.51
					C166.63,909.54,166.09,906.96,166.04,904.64L166.04,904.64z"/>
			</g>
			<path class="st8" d="M127.62,755.34c3.82,48.57,9.59,96.98,17.27,145.09c0.21,1.35,0.51,2.84,1.61,3.65
				c0.6,0.44,1.35,0.61,2.07,0.74c3.61,0.66,7.32,0.76,10.96,0.29c0.88-0.11,1.84-0.31,2.38-1.02c0.41-0.53,0.48-1.24,0.53-1.9
				c0.29-3.5,0.48-7.01,0.57-10.52c0.19-7.65-0.09-15.3-0.37-22.94c-1.42-38.35-2.85-76.69-4.27-115.04L127.62,755.34z"/>
			<path class="st8" d="M202.05,755.34c-3.82,48.57-10.52,98.31-18.2,146.41c-0.22,1.35-2.03,2.93-2.76,3.06
				c-3.61,0.66-7.32,0.76-10.96,0.29c-0.88-0.11-1.84-0.31-2.38-1.02c-0.41-0.53-0.48-1.24-0.53-1.9c-0.29-3.5-0.48-7.01-0.57-10.52
				c-0.19-7.65,0.09-15.3,0.37-22.94c1.42-38.35,2.85-76.69,4.27-115.04L202.05,755.34z"/>
			<path class="st8" d="M144.48,897.85c0,4.66,0.83,10.75,0.83,15.41c0,1.71,0.02,3.5,0.79,5.02c0.51,1.01,1.32,1.84,2.13,2.63
				c5.27,5.15,11.18,9.64,17.55,13.34c3.39,1.97,7.25,3.77,11.1,3.03c1.2-2.54-0.04-5.52-1.48-7.94c-1.91-3.22-4.19-6.21-6.78-8.91
				c-1.79-1.87-3.76-3.64-4.95-5.93c-1.26-2.44-1.28-5.26-1.39-8.01c-0.11-2.88,0.27-5.77,0.46-8.64c-5.84,0.29-10.7,0.68-16.46,1.7
				L144.48,897.85z"/>
			<g>
				<path class="st4" d="M145.11,914.28c-0.87,2.04-1.48,4.14-0.36,6.06c1.12,1.92,4.24,4.27,5.91,5.74
					c4.66,4.11,9.46,8.13,14.87,11.2c2.92,1.66,6.1,3.05,9.46,3.18c0.63,0.03,1.27,0,1.85-0.24c1.16-0.49,1.8-1.77,2-3.02
					c0.5-3.23-1.34-6.32-3.12-9.06c-1.81-2.78-3.78-5.67-6.78-7.08c1.33,1.57,3.86,3.39,3.03,5.28
					C168.74,933.74,151.32,920.43,145.11,914.28L145.11,914.28z"/>
				<path class="st7" d="M144.37,905.72c5.87,1.13,12.39,1.43,18.36,1.24c-0.5,4.11,1.16,8.45,4.16,11.31
					c1.93,1.84,2.89,3.41,4.35,5.3c0.6,0.78,1.23,1.97,1.38,2.95c0.31,2.08-1.78,3.89-3.88,4.09c-2.1,0.19-4.11-0.75-6-1.67
					c-6.08-2.97-12.37-6.21-16.37-11.66c-0.42-0.57-0.81-1.17-1.04-1.83c-0.27-0.8-0.29-1.66-0.31-2.51
					C144.96,910.61,144.42,908.03,144.37,905.72L144.37,905.72z"/>
			</g>
			<path class="st9" d="M131.26,797.65c0.27,3.18,1.01,6.82,1.28,10c8.57,2.55,27.94,3.13,27.95,2.81
				c0.03-3.46-0.12-6.91-0.44-10.35c-9.29-0.79-18.58-1.59-27.88-2.38C131.87,797.7,131.56,797.68,131.26,797.65L131.26,797.65z"/>
			<path class="st9" d="M169.43,797.95c0.2,3.75-0.51,8.41-0.21,11.58c1.46,1.09,27.87-1.06,27.95-2.92
				c0.11-2.58,0.78-6.38,0.89-8.95c-9-0.37-18.56,0.91-27.55,1.39L169.43,797.95z"/>
			<path class="st4" d="M162.73,540.88c-4.66-2.95-12.19-1.76-16.37,1.9c-3.16,2.77-5.22,6.77-5.65,10.95
				c-0.43,4.18,0.77,8.51,3.29,11.87c1.07,1.43,2.38,2.69,3.9,3.64c1.81,1.13,3.87,1.78,5.9,2.43c1.85,0.58,3.8,1.17,5.69,0.72
				c0.87-0.21,1.68-0.63,2.44-1.11c5.1-3.22,8.27-8.88,9.77-14.72c0.48-1.86,0.81-3.78,0.64-5.69c-0.22-2.58-1.42-5.11-3.45-6.7
				c-0.91-0.72-1.96-1.23-3.01-1.74C164.46,541.73,164.14,541.57,162.73,540.88L162.73,540.88z"/>
			<path class="st8" d="M152.38,577.01c2.43-6.14,4.53-12.42,6.27-18.79c-2.47,0.47-5.01-1.99-4.63-4.47
				c0.38-2.48,3.54-4.07,5.76-2.89c0.73-2.72,1.71-5.38,2.92-7.92c0.23-0.48,0.48-0.97,0.9-1.3c0.52-0.4,1.21-0.48,1.86-0.5
				c5.66-0.25,11.05,2.23,16.14,4.71c0.39,0.19,0.8,0.4,1.02,0.77c0.23,0.37,0.23,0.83,0.21,1.27c-0.15,4.4-1.07,8.76-2.69,12.85
				c-1,2.53-2.32,5.01-4.35,6.82c-2.04,1.81-4.9,2.84-7.54,2.15c-0.19,1.78-0.38,3.56-0.57,5.34c-0.05,0.44-0.08,0.94,0.21,1.28
				c0.26,0.3,0.7,0.37,1.1,0.42c2.42,0.3,4.85,0.59,7.27,0.89c0.41,1.17-0.52,2.36-1.47,3.15c-4.24,3.56-9.71,5.8-15.24,5.83
				c-5.59,0.03-12.24-2.55-14.96-7.44c2.44-0.87,4.94-1.59,7.47-2.13L152.38,577.01z"/>
			<g>
				<path class="st10" d="M159.31,554.07c-0.46-0.49-1.07-0.77-1.74-0.81c-0.31-0.02-0.64,0.02-0.94,0.12
					c-0.13,0.04-0.27,0.1-0.39,0.16c-0.09,0.05-0.39,0.33-0.48,0.33c0.09,0.07,0.17,0.13,0.26,0.2c0,0.04-0.01,0.07-0.01,0.11
					c-0.1,0.04-0.2,0.08-0.3,0.12c0.01,0.01,0.02,0.01,0.04,0.02c0.32,0.13,0.46-0.39,0.14-0.52c-0.01-0.01-0.02-0.01-0.04-0.02
					c-0.12-0.05-0.24,0.03-0.3,0.12c-0.07,0.1-0.08,0.19-0.04,0.31c0.04,0.11,0.14,0.2,0.26,0.2c0.16-0.01,0.22-0.05,0.35-0.12
					c0.34-0.2,0.56-0.39,0.97-0.45c0.7-0.11,1.37,0.12,1.85,0.63C159.17,554.7,159.55,554.32,159.31,554.07L159.31,554.07z"/>
			</g>
			<g>
				<path class="st10" d="M159.15,554.11c-1-0.13-2.53,0.08-2.41,1.43c0.03,0.34,0.57,0.35,0.54,0c-0.09-1.03,1.19-0.98,1.87-0.89
					C159.49,554.69,159.49,554.15,159.15,554.11L159.15,554.11z"/>
			</g>
			<path class="st4" d="M161.32,541.97c0.2,0.4,0.52,0.73,0.84,1.04c6.07,5.95,14.36,8.98,22.52,11.38
				c1.18-3.4,2.11-6.98,1.84-10.57c-0.27-3.59-1.91-7.23-4.94-9.18c-2.11-1.36-4.68-1.79-7.19-2.02c-2.17-0.2-4.49-0.23-6.39,0.85
				c-1.23,0.7-2.17,1.82-3.08,2.91c-1.44,1.72-2.9,3.5-3.59,5.64L161.32,541.97z"/>
			<path class="st11" d="M161.43,542.02c-1.36,4.92-1.76,10.09-1.17,15.16c0.36-1.56,0.71-3.13,1.07-4.69
				c0.31-1.38,0.63-2.77,1.26-4.04c0.62-1.27,1.59-2.42,2.88-2.99c-0.57-1.73-2.16-3.09-3.95-3.38L161.43,542.02z"/>
			<g>
				<path class="st10" d="M175.72,555c-0.36,1.33-0.71,2.66-1.07,3.99c-0.15,0.58-0.23,1.49-0.53,2c0,0.64-0.37,0.82-1.11,0.53
					c-0.31-0.26-0.66-0.29-1.05-0.09c0.26,0.23,0.64-0.15,0.38-0.38c-0.01-0.01-0.03-0.02-0.04-0.03c-0.12-0.11-0.26-0.09-0.38,0
					c-0.02,0.01-0.03,0.03-0.05,0.04c-0.12,0.1-0.08,0.28,0,0.38c0.53,0.62,1.93,1.35,2.53,0.51c0.52-0.73,0.62-2.2,0.85-3.07
					c0.33-1.25,0.67-2.5,1-3.74C176.33,554.81,175.81,554.66,175.72,555L175.72,555z"/>
			</g>
			<g>
				<path class="st10" d="M170.2,563.55c-1.41-0.31-2.65-0.95-3.71-1.93c-0.19-0.17-0.54-0.01-0.45,0.26
					c0.3,0.94,0.72,1.82,1.25,2.65c0.19,0.29,0.65,0.02,0.47-0.27c-0.51-0.79-0.9-1.63-1.19-2.52c-0.15,0.09-0.3,0.17-0.45,0.26
					c1.12,1.04,2.46,1.74,3.95,2.06C170.39,564.14,170.54,563.62,170.2,563.55L170.2,563.55z"/>
			</g>
			<g>
				<path class="st10" d="M173.77,555.11c0.03-2.56-1.95-4.83-4.61-4.64c-2.73,0.2-4.39,2.67-4.06,5.28c0.32,2.5,2.22,4.71,4.9,4.38
					c2.62-0.32,4-2.85,3.66-5.31c-0.05-0.34-0.57-0.2-0.52,0.14c0.3,2.17-0.97,4.31-3.22,4.61c-2.49,0.33-4.27-1.99-4.33-4.31
					c-0.14-5.34,7.71-5.59,7.64-0.16C173.22,555.46,173.76,555.46,173.77,555.11L173.77,555.11z"/>
			</g>
			<g>
				<path class="st10" d="M185.12,559.76c0.81-2.29-0.22-4.98-2.63-5.76c-2.6-0.84-5.13,0.81-5.75,3.39
					c-0.59,2.43,0.38,5.23,2.98,5.91c2.61,0.68,4.91-1.25,5.38-3.76c0.06-0.34-0.46-0.48-0.52-0.14c-0.39,2.09-2.23,3.92-4.5,3.44
					c-2.42-0.51-3.36-3.07-2.82-5.3c0.53-2.15,2.6-3.73,4.86-3.07c2.26,0.66,3.23,3.02,2.48,5.16
					C184.48,559.94,185.01,560.09,185.12,559.76L185.12,559.76z"/>
			</g>
			<g>
				<path class="st10" d="M165.78,553.1c-1.07-0.96-8.37-6.89-8.62-2.98c-0.02,0.35,0.52,0.34,0.54,0c0.1-1.55,2.39-0.3,2.96,0.01
					c0.55,0.29,1.09,0.61,1.61,0.95c1.11,0.71,2.14,1.52,3.12,2.4C165.66,553.72,166.04,553.34,165.78,553.1L165.78,553.1z"/>
			</g>
			<g>
				<path class="st10" d="M173.81,556.31c1.15,0.13,2.16,0.67,2.94,1.52c0.13-0.13,0.25-0.25,0.38-0.38
					c-0.07-0.06-0.14-0.12-0.22-0.17c-0.27-0.21-0.65,0.16-0.38,0.38c0.07,0.06,0.14,0.11,0.22,0.17c0.27,0.21,0.62-0.12,0.38-0.38
					c-0.88-0.97-2.02-1.53-3.32-1.68C173.47,555.73,173.47,556.27,173.81,556.31L173.81,556.31z"/>
			</g>
			<path class="st9" d="M168.32,569.74c-3.26-1.07-5.84-3.74-7.27-6.85c-0.34,4.75,2.32,9.58,6.51,11.83
				c0.11-1.63,0.38-3.24,0.79-4.82L168.32,569.74z"/>
			<path class="st7" d="M144.61,579.15c3.93,4.18,9.66,6.61,15.39,6.52c5.74-0.09,11.39-2.69,15.19-6.99
				c0.38-0.43,0.78-0.9,1.33-1.08c0.5-0.16,1.04-0.02,1.56,0.08c12.03,2.22,18.73,10.8,20.44,14.05c2.98,5.66,6.28,11.06,8.58,17.03
				c-5.2,1.26-12.04,4.6-16.28,7.85c1.16,0.83,1.39,2.42,1.53,3.84c1.49,15.36,2.97,30.75,3.24,46.18l-64.53-0.11
				c0,0-0.33-16.84-0.57-17.2c-0.23-0.33-1.12-4.9-1.14-5.3c-0.58-10.98,3.41-14.96,3.96-25.94c-3.46-0.17-14.04-1.35-18.57-2.26
				c0-7.07,2.44-15.49,5.81-23.45c3.37-7.96,15.39-14.85,23.95-13.6L144.61,579.15z"/>
			<path class="st8" d="M115.2,615.68c-1.81,6.37-2.88,9.34-4.32,15.8c-1.58,7.14-2.69,14.69-0.53,21.67
				c0.8,2.58,2.17,5.17,4.56,6.43c1.49,0.78,3.24,0.96,4.91,0.8c4.11-0.39,7.86-2.71,10.7-5.71c2.84-3,4.88-6.65,6.78-10.32
				c3.89-7.54,7.32-15.43,8.78-23.79c0.1-0.55,0.19-1.13,0.05-1.67c-0.12-0.5-0.42-0.93-0.72-1.35c-1.97-2.75-4.23-5.29-6.74-7.55
				c-2.5,3.97-4.84,8.77-5.37,8.12C132.77,617.44,119.65,616.94,115.2,615.68L115.2,615.68z"/>
			<path class="st8" d="M138.16,611.39c1.17-3.29,4.96-7.05,8.4-7.64c2.25-0.39,12.78-5.75,15.24-5.22c1.1,0.24,1.21,7.66,2.04,8.43
				c0.95,0.88,1.29,2.24,1.34,3.53c0.11,3.07-15.55,6.91-16.59,7.26c-1.04,0.35-2.38,1.65-2.62,3.44L138.16,611.39z"/>
			<g>
				<path class="st10" d="M167.69,554.85c0.1,1.84,2.14,2.73,3.56,1.58c0.27-0.22-0.11-0.6-0.38-0.38
					c-1.07,0.86-2.57,0.16-2.64-1.19C168.21,554.5,167.67,554.5,167.69,554.85L167.69,554.85z"/>
			</g>
			<g>
				<path class="st10" d="M178.31,558.16c0.13,1.9,2.39,2.75,3.69,1.32c0.14-0.16,0.06-0.49-0.19-0.46c-0.05,0-0.09,0.01-0.14,0.01
					c-0.34,0.03-0.35,0.57,0,0.54c0.04,0,0.09-0.01,0.14-0.01c-0.06-0.15-0.13-0.31-0.19-0.46c-0.97,1.06-2.67,0.53-2.77-0.94
					C178.83,557.81,178.29,557.81,178.31,558.16L178.31,558.16z"/>
			</g>
			<polygon class="st9" points="127.21,617.34 117.71,644.03 133.3,618.09 			"/>
			<g>
				<path class="st10" d="M133.07,617.95c-5.11,8.7-10.28,17.36-15.59,25.94c-0.18,0.3,0.28,0.57,0.47,0.27
					c5.32-8.57,10.49-17.24,15.59-25.94C133.71,617.92,133.24,617.65,133.07,617.95L133.07,617.95z"/>
			</g>
			<g>
				<path class="st12" d="M150.77,576.82l17.58,11.49l13.52-11.32l2.87,10.06c0,0-19.72,12.14-20.1,11.57
					c-0.37-0.58-15.39-8.92-15.39-8.92L150.77,576.82z"/>
				<polygon class="st12" points="146.46,577.99 167.52,588.79 186.39,577.99 187.95,589.91 166.72,601.41 148.07,593.03 				"/>
				<polygon class="st13" points="143.78,580.18 143.78,614.15 168.95,623.56 192.92,613.67 192.1,580.18 167.52,589.25 				"/>
				<path class="st14" d="M169.9,624.03h-2.96c-0.77,0-1.39-0.62-1.39-1.39v-34.2c0-0.77,0.62-1.39,1.39-1.39h2.97
					c0.77,0,1.39,0.62,1.39,1.39v34.2C171.29,623.41,170.67,624.03,169.9,624.03z"/>
			</g>
			<g>
				<path class="st8" d="M206.05,609.04c1.81,6.37,3.73,12.79,5.16,19.25c1.58,7.14,2.69,14.69,0.53,21.67
					c-0.8,2.58-2.17,5.17-4.56,6.43c-1.49,0.78-3.24,0.96-4.91,0.8c-4.11-0.39-7.86-2.71-10.7-5.71c-2.84-3-4.88-6.65-6.78-10.32
					c-3.89-7.54-7.31-15.43-8.78-23.79c-0.1-0.55-0.19-1.13-0.05-1.67c0.12-0.5,0.42-0.93,0.72-1.35c1.97-2.75,4.23-5.29,6.74-7.55
					c2.5,3.97,4.26,6.58,6.76,10.55c-0.39-0.74,3.62-3,4.37-3.39C198.65,611.82,201.6,610.3,206.05,609.04L206.05,609.04z"/>
				<path class="st8" d="M189.33,615.99c-2.16-3.63-4.84-10.81-9.9-13.35c-2.04-1.02-1.43-0.58-3.64-1.11
					c-2.44-0.59-4.44-1.17-7.06-1.83c-5.62-1.41-7.86,0.4-8.44,1.56c-1.37,2.76,0.89,7.67,3.27,9.62c1.04,0.86,2.36,1.27,3.64,1.69
					c1.52,0.51,3.03,1.06,4.51,1.67c1.02,0.41,2.05,0.86,2.85,1.61c0.81,0.74,3.03,5.03,2.61,6.67L189.33,615.99z"/>
				<path class="st8" d="M182.3,605.03c-0.8-1.63-2.44-2.64-3.95-3.65c-1.83-1.21-3.58-2.53-5.26-3.94
					c-0.07-0.06-0.14-0.12-0.23-0.14c-0.19-0.05-0.38,0.11-0.45,0.29c-0.06,0.19-0.03,0.39,0.02,0.58c0.23,0.98,0.7,1.91,1.35,2.68
					c0.2,0.23,0.42,0.46,0.69,0.6c0.29,0.15,0.62,0.21,0.94,0.27c2.15,0.42,4.19,1.4,5.87,2.81L182.3,605.03z"/>
				<g>
					<path class="st10" d="M161.32,600.66c3.61,1.63,7.19,3.43,10.89,4.84c0.32,0.12,0.47-0.4,0.14-0.52
						c-3.65-1.39-7.19-3.18-10.76-4.79C161.28,600.05,161,600.52,161.32,600.66L161.32,600.66z"/>
				</g>
				<g>
					<path class="st10" d="M159.95,602.84c3.52,1.74,7.03,3.51,10.61,5.12c0.31,0.14,0.59-0.32,0.27-0.47
						c-3.58-1.61-7.09-3.38-10.61-5.13C159.91,602.23,159.64,602.69,159.95,602.84L159.95,602.84z"/>
				</g>
				<g>
					<path class="st10" d="M160.41,606.41c2.83,1.26,5.75,2.34,8.56,3.66c0.14,0.07,0.28,0.03,0.37-0.1
						c0.01-0.01,0.02-0.02,0.02-0.04c0.08-0.12,0.02-0.31-0.1-0.37c-0.01-0.01-0.03-0.01-0.04-0.02c-0.31-0.16-0.58,0.3-0.27,0.47
						c0.07,0.04,0.15-0.42,0.11-0.49c-0.05-0.07-0.23-0.08-0.3-0.13c-0.24-0.18-0.62-0.27-0.9-0.39c-0.91-0.39-1.82-0.77-2.73-1.16
						c-1.49-0.63-2.98-1.24-4.46-1.9C160.36,605.8,160.09,606.27,160.41,606.41L160.41,606.41z"/>
				</g>
				<polygon class="st9" points="195.12,613.65 204.24,640.61 189.84,616.33 				"/>
				<g>
					<path class="st10" d="M189.6,616.88c4.75,8.09,9.6,16.12,14.55,24.09c0.18,0.29,0.65,0.02,0.47-0.27
						c-4.95-7.97-9.8-16-14.55-24.09C189.89,616.31,189.43,616.58,189.6,616.88L189.6,616.88z"/>
				</g>
			</g>
			<path class="st7" d="M130.97,662.66c-13.01,40.46-26.47,129.59-25.92,130.34c0.48,0.65,58.04,15.59,119.83,1.17
				c-10.62-43.75-16.84-84.84-28.39-128.36c-0.24-0.92-0.53-1.9-1.26-2.5c-0.92-0.76-2.25-0.69-3.44-0.59
				c-15.58,1.33-31.23,1.47-46.87,1.6C140.1,664.36,135.79,662.62,130.97,662.66L130.97,662.66z"/>
		</g>
		<g>
			<g>
				<path class="st15" d="M450.27,583.56c-0.28-5.39-1-12.44-1.28-17.83c-2.73-0.7-7.17-2.3-11.01-2.37
					c1.37,7.02,7.5,14.19,11.83,19.87"/>
				<path class="st16" d="M430.21,598.41c-0.97-1.61-3.41-5.28-4.53-6.78c-2.23-2.97-6.46-5.95-10.66-12.45
					c3.55-5.93,7.1-11.85,10.64-17.78c0.31-0.52,0.69-1.08,1.27-1.19c0.35-0.07,0.71,0.05,1.05,0.16c4.3,1.43,8.6,2.85,12.89,4.28
					c0.77,0.26,1.58,0.54,2.12,1.15c0.41,0.47,0.61,1.08,0.8,1.67c1.3,3.99,3.69,10.24,4.99,14.24
					c-5.66,4.97-12.41,7.69-18.07,12.66c-0.25,0.22-0.61,0.45-0.89,0.27c-0.28-0.18,0.2-0.71,0.29-0.39"/>
				<path class="st7" d="M539.82,607.77c4.83-5.44,11.2-9.31,18.02-6.44c6.82,2.86,10.26,11.05,9.59,18.45
					c-0.67,7.4-4.64,14.07-9.1,19.99c-10.55,13.99-24.26,25.2-38.04,35.98c-4.22,3.31-8.88,6.75-14.24,6.82
					c-3.33,0.05-6.52-1.23-9.53-2.64c-17.07-8.01-31.45-21-43.35-35.68c-11.9-14.68-21.48-31.08-30.87-47.5
					c7.62-5.43,15.23-10.86,22.85-16.3c8.49,11.44,16.97,22.87,25.46,34.31c6.94,9.35,14.39,19.11,25.09,23.61
					c4.4,1.85,9.5,2.68,13.92,0.87c3.58-1.47,6.29-4.47,8.86-7.38C525.61,623.84,532.71,615.81,539.82,607.77"/>
				<path class="st17" d="M577.61,559.04c0.75,8.17,0.25,16.46-1.47,24.48c-5.36,1.73-14.36,1.29-19.93,0.48
					c-1.03-21.82,13.84-16.7,22.3-22.3"/>
				<path class="st5" d="M584.92,688.36c15.09,30.11,29.01,78.93,48.11,99.25c7.26,7.73,36.02-2.96,49.33-8.5
					c19.23-8,26.98-10.79,43.66-23.3c5.63,16,8.01,11.54,9.31,17.91c0.34,1.64-77.02,66.1-107.47,58.51
					c-16.07-4-27.03-21.45-34.22-36.44c-8.9-18.56-17.8-37.13-26.7-55.69c-1-2.09-2.02-4.27-1.97-6.58
					c0.05-2.26,1.11-4.36,2.15-6.37C572.95,715.89,579.1,699.62,584.92,688.36"/>
				<path class="st4" d="M562.66,763.13c3.64,13.76,7.16,22.71,15.92,33.9c15.06,19.24,40.41,40.36,53.16,39.92
					c3.3-18.96,17.55-46.65,17.97-53.97c-37.88,2.83-57.44-98.45-59.65-98.05c-8.92,1.62-23.49,4.46-32.41,6.09
					c-1.3,0.24-2.67,0.51-3.63,1.42c-1.27,1.21-1.42,3.16-1.45,4.91C552.09,719.78,553.02,742.9,562.66,763.13"/>
				<g>
					<path class="st5" d="M573.66,557.77c0.99-4.43-4.42-6.82-8.9-7.37c-4.48-0.55-7.42,0.04-9.9,3.84c-2.48,3.79-3.29,8.46-3.42,13
						c-0.17,5.7,1.07,12.16,5.82,15.27c5.75,3.76,14.13,0.24,17.32-5.86C577.78,570.55,576.19,564.18,573.66,557.77"/>
				</g>
				<path class="st5" d="M559.75,581.37c-0.51,2.87-0.76,8.81-1.27,11.67c-0.16,0.93-0.34,1.89-0.84,2.69
					c-0.46,0.74-2.47,3.34-2.78,4.16c-1.93,5.2-3.07,5.56-5.58,13.08c11.96,1.11,10.02,0.34,22.02-0.05
					c-1.25-6.11-3.35-13.29-5.39-19.18c-1.46-4.22-2.1-11.36-2.1-11.36c-0.2-0.44-0.54-0.95-1-0.86c-0.47,0.09-0.08,1.04,0.18,0.65"
					/>
				<path class="st5" d="M574.22,570.46c0.92-1.17,2.87-1.26,3.98-0.27c1.11,0.99,1.3,2.83,0.52,4.1c-1.1,1.8-3.96,2.14-5.45,0.65"
					/>
				<path class="st7" d="M557.44,593.04c0.2,2.56,2.39,3.31,4.96,3.21c2.15-0.09,4.66-1.61,3.79-5.3
					c16.11,20.58,23.29,97.94,22.74,98.77c-0.5,0.76-45.11,3.49-46.27,3.14C538.8,691.69,528.78,623.65,557.44,593.04"/>
				<path class="st5" d="M543.43,693.09c-10.62,23.48-32.52,80.9-33.17,108.26c-0.48,20.19,60.95,130.72,64.6,138.78
					c2.05,4.54,15.37,1.61,24.4,1.72c-15.59-40.9-29.14-81.83-44.73-122.73c-4.03-10.58-8.14-21.75-6.49-32.97
					c1.15-7.82,27.62-60.34,35.58-80.22c2.08-5.19,4.12-10.86,2.64-16.26c-0.24-0.88-0.61-1.78-1.32-2.35
					c-1.06-0.84-2.55-0.73-3.88-0.57c-11.94,1.36-23.88,2.72-35.81,4.08"/>
				<path class="st4" d="M540.37,690.8c-10.5,31.82-32.97,59.62-36.84,92.91c-3.37,29.04,18.05,71.08,18.85,71.78
					c1.76,1.56,33.74-4.06,47.25-6.5c-12.44-26.17-20.8-57.79-4.25-83.93c7.09-11.2,29.24-24.32,33.49-39.6
					c4.33-15.56-3.4-28.1-9.86-42.9c-15.44,2.98-34.43,6.38-50.11,7.63"/>
				<path class="st4" d="M569.74,934.17c1.76,5.67,3.08,11.52-3.38,12.5c-5.06,0.77-7.57,0.24-12.42,1.88
					c-4.85,1.64-9.47,6.81-8.49,11.86c20.62-0.05,40.43,0,60.49,0.59c2.46-8.76,0.07-14.25-4.8-21.92
					c-0.28-0.44-2.03-5.09-2.49-5.33C598.17,933.5,575.66,935.74,569.74,934.17"/>
				<path class="st4" d="M726.19,784.85c3.64-3.97,7.61-7.67,11.31-3.01c2.9,3.65,3.63,5.87,7.12,8.96
					c3.49,3.08,9.63,4.39,13.14,1.32c-9.41-16.26-18.37-31.94-27.03-48.05c-7.97,2.04-11.18,6.42-14.97,13.75
					c-0.21,0.42-3.06,3.92-3.03,4.39C712.75,762.69,724.72,779.46,726.19,784.85"/>
				<path class="st18" d="M552.86,563.44c-2.24-0.14-4.73-0.4-6.23-2.09c-2-2.26-1.16-5.82,0.15-8.55c0.95-1.97,2.44-4.09,4.62-4.17
					c-1.37,0.28-2.4,1.71-2.24,3.1c0.16,1.39,1.49,2.55,2.88,2.51c1.15-0.03,2.15-0.76,3.11-1.4c4.18-2.82,9.65-4.67,14.2-2.53
					c2.91,1.37,7.68,3.42,8.72,6.49c1.03,3.06,0.12,7.29-0.95,10.45c-0.76,2.24-2.18,8.62-3.02,12.85
					c-0.88,0.09-1.66,0.25-2.53,0.35c0.37-2.99,0.95-5.99,0.85-9.59c-0.12-4.11-3.75-6.29-6.83-6.41"/>
				<g>
					<path class="st19" d="M491.55,573.83c37.76,26.19,47.24,78.19,21.18,116.14c-26.06,37.95-77.8,47.47-115.56,21.28
						c-37.76-26.19-47.24-78.19-21.18-116.14C402.05,557.17,453.79,547.64,491.55,573.83z"/>
					<path class="st19" d="M600.9,747.4l-3.47,5.05c-4.58,6.67-13.76,8.36-20.39,3.76l-88.48-61.38c-6.64-4.6-8.32-13.83-3.74-20.49
						l3.47-5.05c4.58-6.67,13.76-8.36,20.39-3.76l88.48,61.38C603.8,731.51,605.48,740.73,600.9,747.4z"/>
					<path class="st20" d="M483.22,585.96c31.1,21.57,38.9,64.39,17.44,95.64c-21.46,31.25-64.07,39.1-95.17,17.53
						c-31.1-21.57-38.9-64.39-17.44-95.64C409.52,572.23,452.12,564.39,483.22,585.96z"/>
					<path class="st12" d="M411.07,686.55c-15.03-11.31-22.66-31.72-18.77-50.18c0.78-3.68,2.04-7.4,4.61-10.14
						c2.57-2.74,6.69-4.27,10.18-2.9c4.92,1.93,6.38,8.42,5.34,13.63c-1.04,5.21-3.78,9.99-4.5,15.25
						c-0.97,7.1,2.17,14.61,7.89,18.89c3.21,2.4,7.11,3.82,10.06,6.52c2.96,2.71,4.69,7.54,2.24,10.72
						c-2.38,3.08-7.22,2.76-10.68,0.99c-3.46-1.77-6.32-4.64-9.93-6.07"/>
				</g>
				<path class="st5" d="M516.75,709.28c-5.22-1.27-12.15-2.59-17.37-3.86c-1.44,2.43-4.24,6.25-5.4,9.92
					c7.09,0.68,15.67-3.17,22.32-5.72"/>
				<path class="st5" d="M525.19,732.83c-1.81,0.47-6.01,1.77-7.76,2.43c-3.47,1.3-7.52,4.52-14.92,6.72
					c-4.64-5.11-9.28-10.22-13.91-15.33c-0.4-0.44-0.84-0.97-0.77-1.57c0.04-0.36,0.25-0.67,0.45-0.97
					c2.59-3.73,5.17-7.47,7.76-11.2c0.46-0.67,0.96-1.37,1.7-1.71c0.56-0.26,1.2-0.28,1.82-0.3c4.18-0.11,10.82-0.63,15-0.74
					c3.12,6.87,3.79,14.15,6.91,21.02c0.14,0.3,0.26,0.71,0.01,0.93c-0.25,0.22-0.62-0.39-0.29-0.39"/>
				<path class="st7" d="M560.48,622.53c-4.03-6.06-6.17-13.22-1.71-19.14c4.46-5.92,13.21-7.22,20.17-4.73
					c6.96,2.5,12.4,8.02,16.99,13.84c10.84,13.76,18.22,29.9,25.18,46c2.13,4.94,4.28,10.33,3.02,15.56
					c-0.78,3.25-2.81,6.04-4.93,8.62c-11.98,14.61-28.09,25.37-45.2,33.28c-17.11,7.91-35.31,13.14-53.47,18.18
					c-3.33-8.77-6.66-17.54-10-26.31c13.14-5.4,26.28-10.81,39.41-16.21c10.74-4.42,22.01-9.23,29.01-18.53
					c2.88-3.82,4.95-8.58,4.31-13.33c-0.52-3.86-2.74-7.24-4.9-10.47C572.41,640.38,566.44,631.45,560.48,622.53"/>
				<g>
					<path class="st21" d="M552.01,568.82c0.08,1.33,1.28,2.52,2.64,2.44c1.34-0.08,2.48-1.33,2.39-2.69
						c-0.02-0.28-0.22-0.51-0.51-0.51c-0.26,0-0.53,0.23-0.51,0.51c0.03,0.41-0.1,0.8-0.36,1.1c-0.16,0.19-0.27,0.28-0.48,0.4
						c-0.15,0.08-0.4,0.17-0.53,0.17c-0.8,0.02-1.58-0.62-1.62-1.42c-0.02-0.28-0.22-0.51-0.51-0.51
						C552.25,568.31,551.99,568.54,552.01,568.82L552.01,568.82z"/>
				</g>
				<g>
					<path class="st21" d="M561.17,568.55c0.19,1.7,1.72,3.18,3.49,3.06c1.72-0.11,3.13-1.62,3.16-3.33c0.01-0.66-1.01-0.66-1.02,0
						c-0.02,1.13-0.98,2.24-2.14,2.31c-1.17,0.07-2.34-0.87-2.47-2.04c-0.03-0.27-0.21-0.51-0.51-0.51
						C561.42,568.04,561.14,568.27,561.17,568.55L561.17,568.55z"/>
				</g>
				<g>
					<path class="st21" d="M558.48,568.56c-0.33,2.83-0.66,5.67-1,8.5c-0.04,0.37,0.36,0.53,0.65,0.49
						c0.57-0.08,1.14-0.16,1.71-0.24c0.65-0.09,0.37-1.07-0.27-0.98c-0.57,0.08-1.14,0.16-1.71,0.24c0.22,0.16,0.43,0.33,0.65,0.49
						c0.33-2.83,0.66-5.67,1-8.5C559.58,567.91,558.55,567.92,558.48,568.56L558.48,568.56z"/>
				</g>
				<g>
					<path class="st21" d="M559.43,580.6c2.75,0.17,5.44-1.21,6.99-3.47c-0.31-0.04-0.62-0.08-0.93-0.12
						c0.17,1.08-0.19,2.21-0.93,3.01c-0.45,0.48,0.27,1.2,0.72,0.72c1.01-1.09,1.42-2.54,1.19-4c-0.08-0.47-0.71-0.45-0.93-0.12
						c-1.35,1.98-3.73,3.11-6.1,2.97C558.78,579.54,558.78,580.57,559.43,580.6L559.43,580.6z"/>
				</g>
			</g>
			<g>
				<path class="st21" d="M520.14,850.61c15.1-2.58,30.26-4.81,45.46-6.7c0.64-0.08,0.65-1.1,0-1.02
					c-15.29,1.9-30.54,4.14-45.73,6.74C519.22,849.74,519.5,850.72,520.14,850.61L520.14,850.61z"/>
			</g>
			<g>
				<path class="st21" d="M642.68,782.63c-5.63,17.55-12.12,34.8-19.47,51.7c-0.26,0.6,0.62,1.12,0.88,0.51
					c7.38-16.98,13.91-34.31,19.57-51.94C643.86,782.27,642.88,782,642.68,782.63L642.68,782.63z"/>
			</g>
			<g>
				<path class="st21" d="M547.66,736.17c-3.76,3.24-5.8,8.63-7.59,13.11c-2.68,6.71-4.74,13.69-6.29,20.74
					c-3.84,17.42-1.65,35.38,1.19,52.8c1.71,10.51,4.03,21,9.22,30.4c0.32,0.57,1.2,0.06,0.88-0.51c-4.54-8.2-6.86-17.28-8.49-26.45
					c-1.74-9.75-3.13-19.62-3.66-29.52c-0.42-7.99-0.26-15.94,1.29-23.8c1.3-6.62,3.12-13.17,5.39-19.52
					c1.94-5.46,4.22-12.6,8.78-16.52C548.88,736.47,548.16,735.75,547.66,736.17L547.66,736.17z"/>
			</g>
			<g>
				<path class="st21" d="M547.88,852.53c-3.71-8.89-6.39-18.11-8.1-27.59c-1.79-9.9-3.57-20.09-3.79-30.17
					c-0.21-9.78,1.19-19.54,3.73-28.97c1.24-4.6,2.74-9.12,4.47-13.56c1.78-4.58,3.55-9.53,7.14-13.02
					c0.47-0.46-0.25-1.18-0.72-0.72c-3.05,2.97-4.71,6.85-6.31,10.73c-1.88,4.55-3.53,9.2-4.9,13.93
					c-2.79,9.62-4.45,19.62-4.45,29.65c0,10.01,1.75,20.06,3.41,29.9c1.74,10.35,4.49,20.4,8.54,30.1
					C547.15,853.4,548.14,853.14,547.88,852.53L547.88,852.53z"/>
			</g>
		</g>
	</g>
</g>
</svg>
