<?xml version="1.0" encoding="utf-8"?>
<!-- Generator: Adobe Illustrator 25.4.1, SVG Export Plug-In . SVG Version: 6.00 Build 0)  -->
<svg version="1.1" id="Capa_1" xmlns="http://www.w3.org/2000/svg" xmlns:xlink="http://www.w3.org/1999/xlink" x="0px" y="0px"
	 viewBox="0 0 1080 1080" style="enable-background:new 0 0 1080 1080;" xml:space="preserve">
<style type="text/css">
	.st0{fill:#F5F5F5;}
	.st1{fill:#37444D;}
	.st2{fill:#62798A;}
	.st3{fill:#566A79;}
	.st4{fill:#263238;}
	.st5{fill:#FFBE9D;}
	.st6{fill:#123B45;}
	.st7{fill:#0EB1BB;}
	.st8{fill:#B78876;}
	.st9{fill:#855C25;}
	.st10{fill:#231F20;}
	.st11{fill:#1683B3;}
	.st12{fill:#FFFFFF;}
	.st13{fill:#27A7DF;}
	.st14{fill:#67CDF5;}
	.st15{fill:#D5545B;}
	.st16{fill:#EC6161;}
	.st17{fill:#FFCC02;}
	.st18{fill:#164552;}
	.st19{fill:#086A70;}
	.st20{fill:#EDEEF0;}
	.st21{fill:#1D4F60;}
	.st22{fill:#D14E54;}
	.st23{fill:#1B1F41;}
	.st24{fill:#F9D01E;}
	.st25{fill:#1D8BB4;}
	.st26{fill:#143E49;}
	.st27{fill:#245160;}
	.st28{fill:#E96348;}
	.st29{fill:#282733;}
	.st30{fill:#F9A427;}
	.st31{fill:#339847;}
	.st32{fill:#B55C27;}
	.st33{fill:#F6F8F7;}
	.st34{fill:#FFFFFF;stroke:#000000;stroke-width:0.1529;stroke-miterlimit:10;}
	.st35{fill:#2973B7;}
	.st36{fill:#FFFFFF;stroke:#1C3664;stroke-width:0.2351;stroke-miterlimit:10;}
	.st37{fill:#F7F7FB;}
	.st38{fill:#383838;}
	.st39{clip-path:url(#SVGID_00000161598695668532985860000002064750011950032786_);}
	.st40{fill:#1374AA;}
	.st41{fill:#8A5D3B;}
	.st42{fill:#F7981D;}
	.st43{fill:#F180AC;}
	.st44{fill:#48C1C6;}
	.st45{fill:#1383B3;}
	.st46{fill:#E2709F;}
	.st47{fill:#073145;}
	.st48{fill:#434343;}
	.st49{fill:#626262;}
	.st50{fill:#767676;}
	.st51{fill:#9F9F9F;}
	.st52{fill:#BEBEBE;}
	.st53{fill:#E1E1E1;}
	.st54{fill:#EFEFEF;}
	.st55{fill:#FAFAFA;}
	.st56{fill:#465662;}
	.st57{fill:#7A8C9B;}
	.st58{fill:#91A1AD;}
	.st59{fill:#B1BCC4;}
	.st60{fill:#D0D6DB;}
	.st61{fill:none;stroke:#263238;stroke-width:9;stroke-linecap:round;stroke-miterlimit:10;}
	.st62{fill:#1C2042;}
	.st63{fill:#3388B8;}
	.st64{fill:#4195D1;}
	.st65{fill:#D0ECF2;stroke:#164552;stroke-width:0.6096;stroke-miterlimit:10;}
	.st66{fill:#273054;}
	.st67{clip-path:url(#SVGID_00000167384458950367943660000001381238177935862675_);}
	.st68{fill:#351C42;}
	.st69{fill:#EC6061;}
	.st70{fill:#BEBDDE;}
	.st71{fill:#F59698;}
	.st72{fill:#532E5C;}
	.st73{fill:#47254F;}
	.st74{fill:#4096D2;}
	.st75{fill:#1B75BB;}
	.st76{fill:#2D7DAA;}
	.st77{fill:#E08085;}
	.st78{fill:#D4545C;}
	.st79{fill:#3E7E64;}
	.st80{fill:#D7B029;}
	.st81{fill:#4D9C80;}
	.st82{fill:#F6BD4B;}
	.st83{fill:#4194D0;}
	.st84{fill:#174552;}
	.st85{fill:#CFEBF2;stroke:#174552;stroke-width:0.6526;stroke-miterlimit:10;}
	.st86{fill:#205060;}
</style>
<path class="st0" d="M742.73,209.46c51.86,2.94,32.12,19.91,61.17,62.97c29.05,43.06,48.92,92.13,81.09,132.92
	c26.12,33.11,59.62,59.8,86.04,92.67c37.02,46.06,58.71,102.39,76.79,158.64c15.03,46.75,28.07,96.33,18.5,144.49
	c-21.17,106.54-154.32,163.57-257.47,129.54c-28.46-9.39-55.81-24.17-85.73-25.88c-71.2-4.05-138.63,66.32-205.55,41.67
	c-63.82-23.5-74.34-115.44-132.8-150.19c-64.15-38.12-145.67,11.3-219.73,2.19C16.41,780.23,39.4,636.4,57.39,599.71
	c13.53-27.6,36.12-61.02,16.84-84.96c-9.49-11.79-25.82-15.18-38.42-23.56c-29.91-19.92-32.45-65.59-14.65-96.81
	c17.8-31.22,50.03-51.06,81.52-68.36c123.52-67.85,257.03-117.48,394.88-146.77c90.87-19.31,197.2-25.76,264.92,37.84"/>
<g>
	<path class="st7" d="M769.71,264.85c-10.18,28.53-36.65,88.79-79.62,88.79c-26.22,0-47.23-75.93-48.19-118.12
		c-17.52,8.9-37.02,13.89-56.66,14.5c5.75,45.53,12.32,93.21,39.29,130.34c5.14,7.08,10.94,13.64,16.91,20.04
		c5.93,6.36,12.11,12.62,19.47,17.25c17.29,10.87,39.61,11.48,59.15,5.53c19.54-5.95,36.73-17.8,52.58-30.69
		c0.97-0.79,1.97-1.63,2.49-2.77c0.59-1.31,0.47-2.81,0.33-4.24c-3.85-40.26-0.27-80.05-4.12-120.31"/>
	<path class="st19" d="M613.46,848.84H178.58c-29.28,0-53.02-23.74-53.02-53.02V211.55c0-29.28,23.74-53.02,53.02-53.02h434.88
		c29.28,0,53.02,23.74,53.02,53.02v584.28C666.48,825.1,642.74,848.84,613.46,848.84z"/>
	<rect x="164.94" y="190.13" class="st36" width="462.16" height="627.11"/>
	<path class="st7" d="M463.52,144.34L448,101.24H342.08l-13.79,43.1H292v71.33h208.04v-71.33H463.52z M396.02,144.34
		c-7.18,0-13-5.82-13-13s5.82-13,13-13c7.18,0,13,5.82,13,13S403.2,144.34,396.02,144.34z"/>
	<g>
		<rect x="198.08" y="269.91" class="st20" width="84.7" height="84.7"/>
		<g>
			<path class="st3" d="M282.79,352.75c-9.54,0-19.07,0-28.61,0c-15.2,0-30.41,0-45.61,0c-3.5,0-6.99,0-10.49,0
				c0.62,0.62,1.24,1.24,1.86,1.86c0-9.54,0-19.07,0-28.61c0-15.2,0-30.41,0-45.61c0-3.5,0-6.99,0-10.49
				c-0.62,0.62-1.24,1.24-1.86,1.86c9.54,0,19.07,0,28.61,0c15.2,0,30.41,0,45.61,0c3.5,0,6.99,0,10.49,0
				c-0.62-0.62-1.24-1.24-1.86-1.86c0,9.54,0,19.07,0,28.61c0,15.2,0,30.41,0,45.61c0,3.5,0,6.99,0,10.49c0,2.39,3.72,2.39,3.72,0
				c0-9.54,0-19.07,0-28.61c0-15.2,0-30.41,0-45.61c0-3.5,0-6.99,0-10.49c0-1-0.85-1.86-1.86-1.86c-9.54,0-19.07,0-28.61,0
				c-15.2,0-30.41,0-45.61,0c-3.5,0-6.99,0-10.49,0c-1,0-1.86,0.85-1.86,1.86c0,9.54,0,19.07,0,28.61c0,15.2,0,30.41,0,45.61
				c0,3.5,0,6.99,0,10.49c0,1,0.85,1.86,1.86,1.86c9.54,0,19.07,0,28.61,0c15.2,0,30.41,0,45.61,0c3.5,0,6.99,0,10.49,0
				C285.18,356.47,285.18,352.75,282.79,352.75z"/>
		</g>
	</g>
	<g>
		<rect x="198.08" y="406.28" class="st20" width="84.7" height="84.7"/>
		<g>
			<g>
				<path class="st3" d="M282.79,489.13c-9.54,0-19.07,0-28.61,0c-15.2,0-30.41,0-45.61,0c-3.5,0-6.99,0-10.49,0
					c0.62,0.62,1.24,1.24,1.86,1.86c0-9.54,0-19.07,0-28.61c0-15.2,0-30.41,0-45.61c0-3.5,0-6.99,0-10.49
					c-0.62,0.62-1.24,1.24-1.86,1.86c9.54,0,19.07,0,28.61,0c15.2,0,30.41,0,45.61,0c3.5,0,6.99,0,10.49,0
					c-0.62-0.62-1.24-1.24-1.86-1.86c0,9.54,0,19.07,0,28.61c0,15.2,0,30.41,0,45.61c0,3.5,0,6.99,0,10.49c0,2.39,3.72,2.39,3.72,0
					c0-9.54,0-19.07,0-28.61c0-15.2,0-30.41,0-45.61c0-3.5,0-6.99,0-10.49c0-1-0.85-1.86-1.86-1.86c-9.54,0-19.07,0-28.61,0
					c-15.2,0-30.41,0-45.61,0c-3.5,0-6.99,0-10.49,0c-1,0-1.86,0.85-1.86,1.86c0,9.54,0,19.07,0,28.61c0,15.2,0,30.41,0,45.61
					c0,3.5,0,6.99,0,10.49c0,1,0.85,1.86,1.86,1.86c9.54,0,19.07,0,28.61,0c15.2,0,30.41,0,45.61,0c3.5,0,6.99,0,10.49,0
					C285.18,492.84,285.18,489.13,282.79,489.13z"/>
			</g>
		</g>
	</g>
	<g>
		<rect x="198.08" y="538.94" class="st20" width="84.7" height="84.7"/>
		<g>
			<path class="st3" d="M282.79,621.79c-9.54,0-19.07,0-28.61,0c-15.2,0-30.41,0-45.61,0c-3.5,0-6.99,0-10.49,0
				c0.62,0.62,1.24,1.24,1.86,1.86c0-9.54,0-19.07,0-28.61c0-15.2,0-30.41,0-45.61c0-3.49,0-6.99,0-10.49
				c-0.62,0.62-1.24,1.24-1.86,1.86c9.54,0,19.07,0,28.61,0c15.2,0,30.41,0,45.61,0c3.5,0,6.99,0,10.49,0
				c-0.62-0.62-1.24-1.24-1.86-1.86c0,9.54,0,19.07,0,28.61c0,15.2,0,30.41,0,45.61c0,3.5,0,6.99,0,10.49c0,2.39,3.72,2.39,3.72,0
				c0-9.54,0-19.07,0-28.61c0-15.2,0-30.41,0-45.61c0-3.49,0-6.99,0-10.49c0-1-0.85-1.86-1.86-1.86c-9.54,0-19.07,0-28.61,0
				c-15.2,0-30.41,0-45.61,0c-3.5,0-6.99,0-10.49,0c-1,0-1.86,0.85-1.86,1.86c0,9.54,0,19.07,0,28.61c0,15.2,0,30.41,0,45.61
				c0,3.5,0,6.99,0,10.49c0,1,0.85,1.86,1.86,1.86c9.54,0,19.07,0,28.61,0c15.2,0,30.41,0,45.61,0c3.5,0,6.99,0,10.49,0
				C285.18,625.51,285.18,621.79,282.79,621.79z"/>
		</g>
	</g>
	<g>
		<rect x="198.08" y="679.04" class="st20" width="84.7" height="84.7"/>
		<g>
			<g>
				<path class="st3" d="M282.79,761.88c-9.54,0-19.07,0-28.61,0c-15.2,0-30.41,0-45.61,0c-3.5,0-6.99,0-10.49,0
					c0.62,0.62,1.24,1.24,1.86,1.86c0-9.54,0-19.07,0-28.61c0-15.2,0-30.41,0-45.61c0-3.5,0-6.99,0-10.49
					c-0.62,0.62-1.24,1.24-1.86,1.86c9.54,0,19.07,0,28.61,0c15.2,0,30.41,0,45.61,0c3.5,0,6.99,0,10.49,0
					c-0.62-0.62-1.24-1.24-1.86-1.86c0,9.54,0,19.07,0,28.61c0,15.2,0,30.41,0,45.61c0,3.5,0,6.99,0,10.49c0,2.39,3.72,2.39,3.72,0
					c0-9.54,0-19.07,0-28.61c0-15.2,0-30.41,0-45.61c0-3.5,0-6.99,0-10.49c0-1-0.85-1.86-1.86-1.86c-9.54,0-19.07,0-28.61,0
					c-15.2,0-30.41,0-45.61,0c-3.5,0-6.99,0-10.49,0c-1,0-1.86,0.85-1.86,1.86c0,9.54,0,19.07,0,28.61c0,15.2,0,30.41,0,45.61
					c0,3.5,0,6.99,0,10.49c0,1,0.85,1.86,1.86,1.86c9.54,0,19.07,0,28.61,0c15.2,0,30.41,0,45.61,0c3.5,0,6.99,0,10.49,0
					C285.18,765.6,285.18,761.88,282.79,761.88z"/>
			</g>
		</g>
	</g>
	<g>
		<g>
			<path class="st3" d="M324.55,290.03c4.07,0,8.14,0,12.22,0c9.84,0,19.68,0,29.52,0c11.85,0,23.71,0,35.56,0
				c10.3,0,20.59,0,30.89,0c4.96,0,9.99,0.23,14.95,0c0.07,0,0.14,0,0.21,0c2.39,0,2.39-3.71,0-3.71c-4.07,0-8.15,0-12.22,0
				c-9.84,0-19.68,0-29.52,0c-11.85,0-23.71,0-35.56,0c-10.3,0-20.59,0-30.89,0c-4.96,0-9.99-0.23-14.95,0c-0.07,0-0.14,0-0.21,0
				C322.16,286.32,322.16,290.03,324.55,290.03L324.55,290.03z"/>
		</g>
	</g>
	<g>
		<g>
			<g>
				<path class="st3" d="M467.21,290.03c4.21,0,8.42,0,12.63,0c10.12,0,20.23,0,30.35,0c12.24,0,24.48,0,36.72,0
					c10.59,0,21.18,0,31.76,0c5.14,0,10.34,0.23,15.47,0c0.07,0,0.15,0,0.22,0c2.39,0,2.39-3.71,0-3.71c-4.21,0-8.42,0-12.63,0
					c-10.12,0-20.23,0-30.35,0c-12.24,0-24.48,0-36.72,0c-10.59,0-21.18,0-31.76,0c-5.14,0-10.34-0.23-15.47,0
					c-0.07,0-0.15,0-0.22,0C464.82,286.32,464.82,290.03,467.21,290.03L467.21,290.03z"/>
			</g>
		</g>
	</g>
	<g>
		<g>
			<path class="st3" d="M321.58,475.45c4.07,0,8.15,0,12.22,0c9.84,0,19.68,0,29.52,0c11.85,0,23.71,0,35.56,0
				c10.3,0,20.59,0,30.89,0c4.96,0,9.99,0.23,14.95,0c0.07,0,0.14,0,0.21,0c2.39,0,2.39-3.71,0-3.71c-4.07,0-8.14,0-12.22,0
				c-9.84,0-19.68,0-29.52,0c-11.85,0-23.71,0-35.56,0c-10.3,0-20.59,0-30.89,0c-4.96,0-9.99-0.23-14.95,0c-0.07,0-0.14,0-0.21,0
				C319.19,471.73,319.19,475.45,321.58,475.45L321.58,475.45z"/>
		</g>
	</g>
	<g>
		<g>
			<path class="st3" d="M471.67,475.45c4.21,0,8.42,0,12.64,0c10.12,0,20.23,0,30.35,0c12.24,0,24.48,0,36.72,0
				c10.59,0,21.18,0,31.76,0c5.14,0,10.33,0.23,15.47,0c0.07,0,0.15,0,0.22,0c2.39,0,2.39-3.71,0-3.71c-4.21,0-8.42,0-12.63,0
				c-10.12,0-20.23,0-30.35,0c-12.24,0-24.48,0-36.72,0c-10.59,0-21.18,0-31.76,0c-5.14,0-10.33-0.23-15.47,0c-0.07,0-0.15,0-0.22,0
				C469.28,471.73,469.28,475.45,471.67,475.45L471.67,475.45z"/>
		</g>
	</g>
	<g>
		<g>
			<path class="st3" d="M324.55,316.78c2.16,0,4.32,0,6.48,0c5.92,0,11.83,0,17.75,0c8.71,0,17.43,0,26.14,0
				c10.68,0,21.36,0,32.05,0c11.65,0,23.29,0,34.94,0c11.76,0,23.51,0,35.27,0c10.96,0,21.93,0,32.89,0c9.31,0,18.62,0,27.93,0
				c6.66,0,13.33,0,19.99,0c3.17,0,6.35,0.09,9.52,0c0.13,0,0.27,0,0.4,0c2.39,0,2.39-3.72,0-3.72c-2.16,0-4.32,0-6.48,0
				c-5.92,0-11.83,0-17.75,0c-8.71,0-17.43,0-26.14,0c-10.68,0-21.36,0-32.05,0c-11.65,0-23.29,0-34.94,0c-11.76,0-23.51,0-35.27,0
				c-10.96,0-21.93,0-32.89,0c-9.31,0-18.62,0-27.93,0c-6.66,0-13.33,0-19.99,0c-3.17,0-6.35-0.09-9.52,0c-0.13,0-0.27,0-0.4,0
				C322.16,313.06,322.16,316.78,324.55,316.78L324.55,316.78z"/>
		</g>
	</g>
	<g>
		<g>
			<path class="st3" d="M324.55,345.01c11.7,0,23.41,0,35.11,0c1.67,0,3.34,0,5.01,0c2.39,0,2.39-3.71,0-3.71
				c-11.7,0-23.41,0-35.11,0c-1.67,0-3.34,0-5.01,0C322.16,341.3,322.16,345.01,324.55,345.01L324.55,345.01z"/>
		</g>
	</g>
	<g>
		<g>
			<path class="st3" d="M401,345.01c6.43,0,12.86,0,19.29,0c15.43,0,30.87,0,46.3,0c18.6,0,37.2,0,55.8,0c16.07,0,32.14,0,48.22,0
				c7.8,0,15.65,0.27,23.44,0c0.11,0,0.22,0,0.33,0c2.39,0,2.39-3.71,0-3.71c-6.43,0-12.86,0-19.29,0c-15.43,0-30.87,0-46.3,0
				c-18.6,0-37.2,0-55.8,0c-16.07,0-32.14,0-48.22,0c-7.8,0-15.64-0.27-23.44,0c-0.11,0-0.22,0-0.33,0
				C398.61,341.3,398.61,345.01,401,345.01L401,345.01z"/>
		</g>
	</g>
	<g>
		<g>
			<path class="st3" d="M321.9,418.98c2.16,0,4.32,0,6.48,0c5.92,0,11.83,0,17.75,0c8.71,0,17.43,0,26.14,0c10.68,0,21.36,0,32.05,0
				c11.65,0,23.29,0,34.94,0c11.76,0,23.51,0,35.27,0c10.96,0,21.93,0,32.89,0c9.31,0,18.62,0,27.93,0c6.67,0,13.33,0,19.99,0
				c3.17,0,6.35,0.09,9.51,0c0.13,0,0.27,0,0.4,0c2.39,0,2.39-3.72,0-3.72c-2.16,0-4.32,0-6.48,0c-5.92,0-11.83,0-17.75,0
				c-8.71,0-17.43,0-26.14,0c-10.68,0-21.36,0-32.05,0c-11.65,0-23.29,0-34.94,0c-11.76,0-23.51,0-35.27,0c-10.96,0-21.93,0-32.89,0
				c-9.31,0-18.62,0-27.93,0c-6.66,0-13.33,0-19.99,0c-3.17,0-6.35-0.09-9.52,0c-0.13,0-0.27,0-0.4,0
				C319.51,415.26,319.5,418.98,321.9,418.98L321.9,418.98z"/>
		</g>
	</g>
	<g>
		<g>
			<g>
				<path class="st3" d="M326.36,447.21c11.7,0,23.41,0,35.11,0c1.67,0,3.34,0,5.01,0c2.39,0,2.39-3.72,0-3.72
					c-11.7,0-23.41,0-35.11,0c-1.67,0-3.34,0-5.01,0C323.97,443.5,323.96,447.21,326.36,447.21L326.36,447.21z"/>
			</g>
		</g>
	</g>
	<g>
		<g>
			<path class="st3" d="M398.35,447.21c6.43,0,12.86,0,19.29,0c15.43,0,30.87,0,46.3,0c18.6,0,37.2,0,55.8,0
				c16.07,0,32.14,0,48.22,0c7.8,0,15.65,0.27,23.44,0c0.11,0,0.22,0,0.33,0c2.39,0,2.39-3.72,0-3.72c-6.43,0-12.86,0-19.29,0
				c-15.43,0-30.87,0-46.3,0c-18.6,0-37.2,0-55.8,0c-16.07,0-32.14,0-48.22,0c-7.8,0-15.64-0.27-23.44,0c-0.11,0-0.22,0-0.33,0
				C395.96,443.5,395.96,447.21,398.35,447.21L398.35,447.21z"/>
		</g>
	</g>
	<g>
		<g>
			<g>
				<path class="st3" d="M319.67,555.19c4.07,0,8.14,0,12.22,0c9.84,0,19.68,0,29.52,0c11.85,0,23.71,0,35.56,0
					c10.3,0,20.59,0,30.89,0c4.96,0,9.99,0.23,14.95,0c0.07,0,0.14,0,0.21,0c2.39,0,2.39-3.72,0-3.72c-4.07,0-8.14,0-12.22,0
					c-9.84,0-19.68,0-29.52,0c-11.85,0-23.71,0-35.56,0c-10.3,0-20.59,0-30.89,0c-4.96,0-9.99-0.23-14.95,0c-0.07,0-0.14,0-0.21,0
					C317.28,551.48,317.28,555.19,319.67,555.19L319.67,555.19z"/>
			</g>
		</g>
	</g>
	<g>
		<g>
			<path class="st3" d="M462.33,555.19c4.21,0,8.42,0,12.64,0c10.12,0,20.23,0,30.35,0c12.24,0,24.48,0,36.72,0
				c10.59,0,21.18,0,31.76,0c5.14,0,10.34,0.23,15.47,0c0.07,0,0.15,0,0.22,0c2.39,0,2.39-3.72,0-3.72c-4.21,0-8.42,0-12.64,0
				c-10.12,0-20.23,0-30.35,0c-12.24,0-24.48,0-36.72,0c-10.59,0-21.18,0-31.76,0c-5.14,0-10.33-0.23-15.47,0c-0.07,0-0.15,0-0.22,0
				C459.94,551.48,459.94,555.19,462.33,555.19L462.33,555.19z"/>
		</g>
	</g>
	<g>
		<g>
			<path class="st3" d="M316.7,744.32c4.07,0,8.15,0,12.22,0c9.84,0,19.68,0,29.52,0c11.85,0,23.71,0,35.56,0
				c10.3,0,20.59,0,30.89,0c4.96,0,9.99,0.23,14.95,0c0.07,0,0.14,0,0.21,0c2.39,0,2.39-3.71,0-3.71c-4.07,0-8.15,0-12.22,0
				c-9.84,0-19.68,0-29.52,0c-11.85,0-23.71,0-35.56,0c-10.3,0-20.59,0-30.89,0c-4.96,0-9.99-0.23-14.95,0c-0.07,0-0.14,0-0.21,0
				C314.31,740.61,314.3,744.32,316.7,744.32L316.7,744.32z"/>
		</g>
	</g>
	<g>
		<g>
			<path class="st3" d="M466.79,744.32c4.21,0,8.42,0,12.64,0c10.12,0,20.23,0,30.35,0c12.24,0,24.48,0,36.72,0
				c10.59,0,21.18,0,31.76,0c5.14,0,10.34,0.23,15.47,0c0.07,0,0.15,0,0.22,0c2.39,0,2.39-3.71,0-3.71c-4.21,0-8.42,0-12.64,0
				c-10.12,0-20.23,0-30.35,0c-12.24,0-24.48,0-36.72,0c-10.59,0-21.18,0-31.76,0c-5.14,0-10.33-0.23-15.47,0c-0.07,0-0.15,0-0.22,0
				C464.4,740.61,464.39,744.32,466.79,744.32L466.79,744.32z"/>
		</g>
	</g>
	<g>
		<g>
			<g>
				<path class="st3" d="M319.67,581.94c2.16,0,4.32,0,6.48,0c5.92,0,11.83,0,17.75,0c8.71,0,17.43,0,26.14,0
					c10.68,0,21.36,0,32.05,0c11.65,0,23.29,0,34.94,0c11.76,0,23.51,0,35.27,0c10.96,0,21.93,0,32.89,0c9.31,0,18.62,0,27.93,0
					c6.66,0,13.33,0,19.99,0c3.17,0,6.35,0.09,9.52,0c0.13,0,0.27,0,0.4,0c2.39,0,2.39-3.72,0-3.72c-2.16,0-4.32,0-6.48,0
					c-5.92,0-11.83,0-17.75,0c-8.71,0-17.43,0-26.14,0c-10.68,0-21.36,0-32.05,0c-11.65,0-23.29,0-34.94,0c-11.76,0-23.51,0-35.27,0
					c-10.96,0-21.93,0-32.89,0c-9.31,0-18.62,0-27.93,0c-6.66,0-13.33,0-19.99,0c-3.17,0-6.35-0.09-9.52,0c-0.13,0-0.27,0-0.4,0
					C317.28,578.22,317.28,581.94,319.67,581.94L319.67,581.94z"/>
			</g>
		</g>
	</g>
	<g>
		<g>
			<g>
				<path class="st3" d="M319.67,610.17c11.7,0,23.41,0,35.11,0c1.67,0,3.34,0,5.01,0c2.39,0,2.39-3.71,0-3.71
					c-11.7,0-23.41,0-35.11,0c-1.67,0-3.34,0-5.01,0C317.28,606.46,317.28,610.17,319.67,610.17L319.67,610.17z"/>
			</g>
		</g>
	</g>
	<g>
		<g>
			<g>
				<path class="st3" d="M396.12,610.17c6.43,0,12.86,0,19.29,0c15.43,0,30.87,0,46.3,0c18.6,0,37.2,0,55.8,0
					c16.07,0,32.14,0,48.22,0c7.8,0,15.64,0.27,23.44,0c0.11,0,0.22,0,0.33,0c2.39,0,2.39-3.71,0-3.71c-6.43,0-12.86,0-19.29,0
					c-15.43,0-30.87,0-46.3,0c-18.6,0-37.2,0-55.8,0c-16.07,0-32.14,0-48.22,0c-7.8,0-15.64-0.27-23.44,0c-0.11,0-0.22,0-0.33,0
					C393.73,606.46,393.73,610.17,396.12,610.17L396.12,610.17z"/>
			</g>
		</g>
	</g>
	<g>
		<g>
			<g>
				<path class="st3" d="M317.02,687.85c2.16,0,4.32,0,6.48,0c5.92,0,11.83,0,17.75,0c8.71,0,17.43,0,26.14,0
					c10.68,0,21.36,0,32.05,0c11.65,0,23.29,0,34.94,0c11.76,0,23.51,0,35.27,0c10.96,0,21.93,0,32.89,0c9.31,0,18.62,0,27.93,0
					c6.66,0,13.33,0,19.99,0c3.17,0,6.35,0.09,9.52,0c0.13,0,0.27,0,0.4,0c2.39,0,2.39-3.71,0-3.71c-2.16,0-4.32,0-6.48,0
					c-5.92,0-11.83,0-17.75,0c-8.71,0-17.43,0-26.14,0c-10.68,0-21.36,0-32.05,0c-11.65,0-23.29,0-34.94,0c-11.76,0-23.51,0-35.27,0
					c-10.96,0-21.93,0-32.89,0c-9.31,0-18.62,0-27.93,0c-6.66,0-13.33,0-19.99,0c-3.17,0-6.35-0.09-9.52,0c-0.13,0-0.27,0-0.4,0
					C314.63,684.14,314.62,687.85,317.02,687.85L317.02,687.85z"/>
			</g>
		</g>
	</g>
	<g>
		<g>
			<path class="st3" d="M321.47,716.09c11.7,0,23.41,0,35.11,0c1.67,0,3.34,0,5.01,0c2.39,0,2.39-3.72,0-3.72
				c-11.7,0-23.41,0-35.11,0c-1.67,0-3.34,0-5.01,0C319.08,712.37,319.08,716.09,321.47,716.09L321.47,716.09z"/>
		</g>
	</g>
	<g>
		<g>
			<g>
				<path class="st3" d="M393.47,716.09c6.43,0,12.86,0,19.29,0c15.43,0,30.87,0,46.3,0c18.6,0,37.2,0,55.8,0
					c16.07,0,32.14,0,48.22,0c7.8,0,15.64,0.27,23.44,0c0.11,0,0.22,0,0.33,0c2.39,0,2.39-3.72,0-3.72c-6.43,0-12.86,0-19.29,0
					c-15.43,0-30.87,0-46.3,0c-18.6,0-37.2,0-55.8,0c-16.07,0-32.14,0-48.22,0c-7.8,0-15.64-0.27-23.44,0c-0.11,0-0.22,0-0.33,0
					C391.08,712.37,391.07,716.09,393.47,716.09L393.47,716.09z"/>
			</g>
		</g>
	</g>
	<g>
		<path class="st19" d="M194.87,395.12c14.12,26.25,28.23,52.51,42.35,78.76c1.67,3.11,5.66,1.84,6.79-0.89
			c14.12-34.18,28.23-68.36,42.35-102.54c1.82-4.42-5.36-6.34-7.17-1.97c-14.12,34.18-28.23,68.36-42.35,102.54
			c2.26-0.3,4.53-0.59,6.79-0.89c-14.12-26.25-28.23-52.51-42.35-78.76C199.02,387.16,192.61,390.91,194.87,395.12L194.87,395.12z"
			/>
	</g>
	<g>
		<path class="st19" d="M194.87,537.35c14.12,26.25,28.23,52.51,42.35,78.76c1.67,3.11,5.66,1.84,6.79-0.89
			c14.12-34.18,28.23-68.36,42.35-102.54c1.82-4.42-5.36-6.34-7.17-1.98c-14.12,34.18-28.23,68.36-42.35,102.54
			c2.26-0.3,4.53-0.59,6.79-0.89c-14.12-26.25-28.23-52.51-42.35-78.76C199.02,529.38,192.61,533.13,194.87,537.35L194.87,537.35z"
			/>
	</g>
	<g>
		<path class="st19" d="M194.87,674.94c14.12,26.25,28.23,52.51,42.35,78.76c1.67,3.11,5.66,1.84,6.79-0.89
			c14.12-34.18,28.23-68.36,42.35-102.54c1.82-4.42-5.36-6.34-7.17-1.98c-14.12,34.18-28.23,68.36-42.35,102.54
			c2.26-0.3,4.53-0.59,6.79-0.89c-14.12-26.25-28.23-52.51-42.35-78.76C199.02,666.98,192.61,670.73,194.87,674.94L194.87,674.94z"
			/>
	</g>
	<path class="st5" d="M740.83,627.42c13.87,110.05,23.76,220.78,29.63,331.79c-9.82,3.41-19.63,6.81-29.45,10.22
		c28.45-1.47,37.33-1.93,65.79-3.4c-0.8-112.74,14.41-226.45,6.49-338.81"/>
	<path class="st5" d="M802.16,626.34c46.81,93.75,76.6,220.4,104.79,323.71c-10.51,10.14-9.43,7.08-18.06,19.38
		c23.3-4.09,27.53-6.18,50.98-15.74c-19.62-108.34-24.63-248.33-44.25-356.67c-32.98,11.54-65.95,23.07-98.93,34.61"/>
	<path class="st38" d="M768.51,204.56c-8.21-4.42-10.86-15.93-9.38-25.14c1.48-9.21,8.18-17.15,16.58-21.19
		c8.4-4.04,18.28-4.44,27.33-2.21c4.29,1.06,8.51,2.71,11.99,5.43c7.04,5.49,12.47,15.7,14.56,24.38c1.87,7.75,0.9,14.69-0.81,22.48
		c-1.71,7.79-6.92,15.21-14.52,17.62c-5.31,1.68-11.17,0.77-16.31-1.39c-5.13-2.16-9.68-5.48-14.17-8.78
		C778.69,212.03,773.6,208.3,768.51,204.56"/>
	<path class="st38" d="M826.8,200.16c0.92-2,3.36-2.78,5.56-2.95c4.98-0.39,10.1,1.3,13.87,4.57c3.78,3.28,6.17,8.1,6.49,13.09
		c0.16,2.43-0.17,4.93-1.18,7.15c-2.84,6.22-9.13,11.29-15.95,11.84c-3.77,0.3-7.55,1.47-12.84-2.16c-3.12-2.15-6.13-5.56-7.34-9.14
		c-0.84-2.46-0.74-5.15-0.21-7.7c1.57-7.57,7.05-14.21,14.18-17.19c0.11-0.05,0.22-0.09,0.33-0.14"/>
	<g>
		<g>
			<path class="st5" d="M805.25,179.75c1.38-7.85-8.36-11.59-16.31-12.18c-7.95-0.58-13.07,0.7-17.13,7.56
				c-4.05,6.87-5.08,15.12-4.94,23.09c0.18,10.02,2.9,21.24,11.55,26.3c10.45,6.11,24.92-0.77,30.05-11.74
				C813.58,201.82,810.25,190.77,805.25,179.75"/>
		</g>
	</g>
	<path class="st5" d="M788.53,222.3c-0.78,6.04-0.71,18.47-1.5,24.51c-0.25,1.96-7.91,8.7-9.29,9.89
		c-12.16,10.51-14.98,26.33-19.5,42.3c25.23,1.11,32.55-9.93,57.72-11.93c-3.24-12.64-8.36-27.43-13.23-39.53
		c-3.5-8.68-5.54-23.52-5.54-23.52c-0.46-0.89-1.22-1.92-2.19-1.7c-0.97,0.23-0.07,2.19,0.44,1.33"/>
	<path class="st38" d="M765.58,178.19c1.2,2.98,6.95,5.63,10.03,6.54c3.08,0.91,6.31,1.26,9.52,1.47
		c18.11,1.17,22.51,17.11,24.22,31.33c4.23-6.01,13.15-26.52,6.07-38.42c-5.31-8.91-12.66-14.82-22.86-16.71
		C782.35,160.5,765.37,163.21,765.58,178.19"/>
	<path class="st5" d="M801.96,202.85c0.75-2.52,3.88-3.94,6.35-3.04c2.47,0.89,3.97,3.76,3.52,6.35c-0.63,3.65-5.09,6.08-8.5,4.62"
		/>
	<g>
		<path class="st38" d="M774.7,196.95c0.49,3.81,0.04,7.61-1.34,11.19c-0.18,0.47,0.02,1.16,0.39,1.49
			c1.15,1.03,2.65,1.62,4.21,1.47c0.82-0.08,1.53-0.64,1.53-1.53c0-0.76-0.7-1.61-1.53-1.53c-0.76,0.08-1.46-0.04-2.05-0.57
			c0.13,0.5,0.26,0.99,0.39,1.49c1.47-3.8,1.97-7.97,1.45-12.01c-0.11-0.82-0.63-1.53-1.53-1.53
			C775.48,195.42,774.59,196.13,774.7,196.95L774.7,196.95z"/>
	</g>
	<g>
		<path class="st38" d="M767.32,199.18c0.17,0.64,0.55,1.28,1.06,1.7c0.63,0.52,1.32,0.82,2.15,0.88c0.33,0.02,0.69-0.03,1.01-0.12
			c0.33-0.09,0.66-0.23,0.94-0.42c0.28-0.19,0.56-0.4,0.78-0.67c0.31-0.39,0.5-0.71,0.68-1.18c0.13-0.35,0.03-0.87-0.15-1.18
			c-0.19-0.32-0.55-0.62-0.91-0.7c-0.39-0.09-0.83-0.07-1.18,0.15c-0.1,0.08-0.21,0.16-0.31,0.24c-0.19,0.19-0.32,0.42-0.39,0.67
			c-0.01,0.03-0.03,0.07-0.04,0.1c0.05-0.12,0.1-0.24,0.15-0.36c-0.07,0.15-0.15,0.28-0.25,0.41c0.08-0.1,0.16-0.21,0.24-0.31
			c-0.1,0.12-0.21,0.23-0.34,0.33c0.1-0.08,0.21-0.16,0.31-0.24c-0.14,0.11-0.29,0.2-0.46,0.27c0.12-0.05,0.24-0.1,0.36-0.15
			c-0.16,0.07-0.33,0.11-0.51,0.14c0.14-0.02,0.27-0.04,0.41-0.05c-0.16,0.02-0.31,0.02-0.47,0c0.14,0.02,0.27,0.04,0.41,0.05
			c-0.15-0.02-0.3-0.07-0.45-0.12c0.12,0.05,0.24,0.1,0.37,0.15c-0.16-0.07-0.31-0.16-0.45-0.26c0.1,0.08,0.21,0.16,0.31,0.24
			c-0.14-0.11-0.26-0.23-0.37-0.36c0.08,0.1,0.16,0.21,0.24,0.31c-0.11-0.14-0.19-0.29-0.26-0.45c0.05,0.12,0.1,0.24,0.15,0.36
			c-0.03-0.08-0.06-0.16-0.08-0.25c-0.1-0.37-0.37-0.72-0.7-0.91c-0.33-0.19-0.81-0.27-1.18-0.15
			C767.59,197.56,767.1,198.35,767.32,199.18L767.32,199.18z"/>
	</g>
	<g>
		<path class="st38" d="M780.78,196.69c-1.27,0.05-2,1.23-1.73,2.41c0.16,0.68,0.53,1.28,0.97,1.81c0.76,0.91,1.92,1.54,3.1,1.71
			c2.81,0.41,5.27-1.44,6.21-4.03c0.27-0.75-0.31-1.71-1.07-1.88c-0.86-0.2-1.59,0.26-1.88,1.07c-0.02,0.05-0.04,0.1-0.05,0.15
			c-0.04,0.11-0.02,0.07,0.05-0.12c0.01,0.05-0.09,0.19-0.12,0.24c-0.09,0.17-0.2,0.33-0.3,0.5c-0.17,0.25,0.2-0.22-0.02,0.03
			c-0.06,0.07-0.12,0.13-0.18,0.2c-0.09,0.1-0.39,0.28-0.43,0.4c0.03-0.1,0.24-0.17,0.02-0.02c-0.07,0.05-0.15,0.1-0.22,0.14
			c-0.09,0.05-0.18,0.11-0.27,0.15c-0.05,0.03-0.33,0.11-0.1,0.05c0.23-0.06-0.06,0.02-0.11,0.03c-0.1,0.03-0.2,0.06-0.3,0.08
			c-0.03,0.01-0.07,0.01-0.1,0.02c-0.14,0.02-0.14,0.03,0,0.01c0.13-0.02,0.13-0.02,0,0c-0.05,0-0.1,0.01-0.15,0.01
			c-0.08,0-0.17,0-0.25,0c-0.05,0-0.1,0-0.15-0.01c-0.12-0.01-0.07,0,0.15,0.03c-0.01-0.03-0.44-0.09-0.49-0.11
			c-0.07-0.02-0.22-0.1-0.29-0.1c0.12,0,0.27,0.13,0.04,0.01c-0.17-0.08-0.32-0.18-0.48-0.28c-0.23-0.15,0.16,0.15,0.03,0.02
			c-0.06-0.06-0.13-0.11-0.19-0.17c-0.07-0.07-0.14-0.15-0.21-0.22c-0.22-0.24,0.16,0.28,0-0.01c-0.02-0.04-0.27-0.41-0.24-0.44
			c0.08,0.2,0.1,0.24,0.06,0.13c-0.02-0.05-0.03-0.1-0.05-0.14c0.01,0.08,0.02,0.16,0.03,0.24c-0.02,0.38-0.22,0.69-0.57,0.93
			c-0.26,0.07-0.51,0.14-0.77,0.21c0.02,0,0.05,0,0.07,0c0.8-0.03,1.57-0.68,1.53-1.53C782.27,197.42,781.63,196.66,780.78,196.69
			L780.78,196.69z"/>
	</g>
	<g>
		<path class="st38" d="M776.91,217.65c6.35,2.45,13.47,0.09,17.39-5.36c0.48-0.67,0.12-1.7-0.55-2.09
			c-0.77-0.45-1.61-0.12-2.09,0.55c-3.17,4.41-8.95,5.88-13.94,3.96c-0.77-0.3-1.68,0.33-1.88,1.07
			C775.61,216.63,776.14,217.35,776.91,217.65L776.91,217.65z"/>
	</g>
	<path class="st7" d="M780.15,251.74c-1.33,12.15-6.71,34.85-9.45,46.76c7.85-18.8,25.24-30.8,34.58-49.13
		c19.51,19.11,21.52,45.44,20.13,72.72c-1.39,27.28,5.17,34.81,5.15,62.12c-21.01,0-58.53,1.1-79.34,0.74
		c-2.65-15.37-3.41-26.24-3.2-53.5c0.11-14.84,2.52-29.73,7.12-43.84C759.75,273.5,767.89,260.1,780.15,251.74
		c-1.63,3.37-3.27,6.74-4.9,10.11"/>
	<g>
		<path class="st38" d="M778.18,252.41c-3.93,18.61-7.59,37.28-10.98,56c1.17,0,2.34,0,3.51,0c-1.29-5.5-2.58-11-3.86-16.51
			c-0.64-2.75-1.29-5.5-1.93-8.25c-0.04-0.18-0.26-1.6-0.42-1.15c0.08-0.23,1.35-0.94,1.56-1.09c1.22-0.85,2.43-1.69,3.65-2.54
			c0.74-0.51,0.97-1.19,0.84-2.06c-0.94-6.21-1.57-12.29-1.41-18.58c-0.45,0.59-0.89,1.17-1.34,1.76c4.43-1.23,8.15-4.22,12.61-5.33
			c2.27-0.57,1.31-4.08-0.97-3.51c-4.47,1.12-8.19,4.1-12.61,5.33c-0.79,0.22-1.32,0.95-1.34,1.76c-0.18,6.62,0.54,13.02,1.54,19.55
			c0.28-0.69,0.56-1.37,0.84-2.06c-1.39,0.97-2.78,1.94-4.17,2.91c-1,0.7-2.2,1.33-2.61,2.56c-0.37,1.11,0.07,2.35,0.32,3.43
			c0.4,1.69,0.79,3.39,1.19,5.08c1.54,6.56,3.07,13.12,4.61,19.68c0.39,1.68,3.19,1.79,3.51,0c3.39-18.72,7.05-37.39,10.98-56
			C782.17,251.09,778.66,250.11,778.18,252.41L778.18,252.41z"/>
	</g>
	<g>
		<path class="st38" d="M772.46,305.08c5.16-21.59,22.21-37.16,34.54-54.73c-1.05,0-2.1,0-3.14,0c2.78,3.9,4.89,8.14,6.25,12.73
			c0.28-0.69,0.56-1.37,0.84-2.06c-6.88,4.92-13.47,10.2-19.76,15.86c-0.95,0.86-0.51,2.21,0.37,2.86c1.89,1.4,3.35,3.32,4.21,5.5
			c0.16-0.59,0.31-1.18,0.47-1.77c-8.9,9.14-18.46,17.61-28.65,25.29c-1.85,1.39-0.03,4.56,1.84,3.14
			c10.44-7.87,20.27-16.5,29.38-25.86c0.42-0.43,0.7-1.18,0.47-1.77c-1.23-3.15-3.17-5.67-5.88-7.68c0.12,0.95,0.25,1.91,0.37,2.86
			c6.05-5.45,12.4-10.55,19.02-15.29c0.65-0.47,1.08-1.23,0.84-2.06c-1.45-4.88-3.66-9.46-6.62-13.6c-0.83-1.16-2.32-1.17-3.14,0
			c-12.55,17.87-29.65,33.63-34.91,55.6C768.4,306.39,771.91,307.36,772.46,305.08L772.46,305.08z"/>
	</g>
	<path class="st38" d="M749.62,378.86c-24.95,88.81-42.92,223.82-37.69,304.79c26.74,12.59,90.21,13.92,119.6,10.82
		c62.46-6.59,95.23-25.52,122.9-37.17c-7.48-93.98-61.17-203.18-123.87-281.83C809.34,375.76,770.85,378.58,749.62,378.86"/>
	<path class="st38" d="M759.88,961.21c-9.88,3.36-19.78,7.65-27.99,13c9.64,3.76,66.68,0.59,75.56,0.77
		c0.9-5.03,0.92-10.21,0.06-15.24c-1.13,2.79-4.66,3.61-7.66,3.82C755.63,966.68,760.53,961.31,759.88,961.21"/>
	<path class="st38" d="M897,957.55c-3.17,0.86,2.08,16.53,42.87-12.12c2.85,3.95,4.68,8.43,7.52,12.38
		c-4.86,3.04-9.95,7.04-14.81,10.08c-4.13,2.58-9.19,3.69-13.66,5.64c-13.41,5.83-32.98,5.7-43.23,4.69
		C876.76,976.06,891.68,960.63,897,957.55"/>
	<path class="st5" d="M621.01,510.27c-12.3-2.14-24.41-5.39-36.13-9.72c-2.1,3.43-0.04,7.87,2.39,11.07
		c2.43,3.2,5.43,6.55,5.24,10.56c-9.08-1.94-18.17-3.88-27.25-5.81c-3.37-0.72-7-1.42-10.18-0.08c-5.15,2.17-6.88,9.12-4.91,14.34
		c1.97,5.23,6.59,8.97,11.32,11.95c19.56,12.3,44.58,15.54,66.63,8.62c-0.45-14.99-3.17-29.92-8.03-44.11"/>
	<path class="st7" d="M817.42,263.5c44.84,34.04,62.36,99.7,40.44,151.55c-14.21,33.62-42.15,59.62-72.21,80.32
		c-47.9,32.99-103.22,55.16-160.65,64.38c-1.01-21.51-3.36-42.96-7.02-64.18c54.54-7.05,105.39-36.73,140.22-79.29
		c34.83-42.56,53.74-97.39,54.97-152.37"/>
	<g>
		<defs>
			<rect id="SVGID_1_" x="199.71" y="271.29" width="81.25" height="81.25"/>
		</defs>
		<clipPath id="SVGID_00000116200753978752884690000007218274840393387681_">
			<use xlink:href="#SVGID_1_"  style="overflow:visible;"/>
		</clipPath>
		<g style="clip-path:url(#SVGID_00000116200753978752884690000007218274840393387681_);">
			<path class="st40" d="M254.5,337.69c5.95,16.69,21.44,51.93,46.57,51.93c15.33,0,27.62-44.41,28.18-69.09
				c10.25,5.21,21.65,8.13,33.14,8.48c-3.36,26.63-7.21,54.52-22.98,76.24c-3.01,4.14-6.4,7.98-9.89,11.72
				c-3.47,3.72-7.08,7.38-11.39,10.09c-10.11,6.36-23.17,6.71-34.6,3.24c-11.43-3.48-21.49-10.41-30.75-17.95
				c-0.57-0.46-1.15-0.95-1.46-1.62c-0.35-0.76-0.27-1.65-0.19-2.48c2.25-23.55,0.16-46.82,2.41-70.37"/>
			<path class="st38" d="M255.2,302.43c4.8-2.58,6.35-9.32,5.49-14.71c-0.86-5.39-4.78-10.03-9.7-12.4
				c-4.92-2.36-10.69-2.59-15.99-1.29c-2.51,0.62-4.98,1.59-7.01,3.18c-4.12,3.21-7.29,9.18-8.52,14.26
				c-1.09,4.53-0.53,8.59,0.47,13.15c1,4.56,4.05,8.9,8.5,10.31c3.11,0.98,6.53,0.45,9.54-0.81c3-1.26,5.66-3.21,8.29-5.14
				C249.24,306.8,252.22,304.62,255.2,302.43"/>
			<path class="st38" d="M221.11,299.86c-0.54-1.17-1.97-1.63-3.25-1.72c-2.92-0.23-5.91,0.76-8.12,2.68
				c-2.21,1.92-3.61,4.74-3.8,7.65c-0.09,1.42,0.1,2.88,0.69,4.18c1.66,3.64,5.34,6.6,9.33,6.92c2.21,0.18,4.42,0.86,7.51-1.27
				c1.82-1.26,3.58-3.25,4.3-5.35c0.49-1.44,0.43-3.01,0.12-4.5c-0.92-4.43-4.12-8.31-8.29-10.06c-0.07-0.03-0.13-0.05-0.2-0.08"/>
			<g>
				<path class="st5" d="M233.71,287.92c-0.81-4.59,4.89-6.78,9.54-7.12c4.65-0.34,7.65,0.41,10.02,4.42
					c2.37,4.02,2.97,8.84,2.89,13.5c-0.1,5.86-1.69,12.43-6.75,15.38c-6.11,3.57-14.58-0.45-17.57-6.87
					C228.84,300.83,230.79,294.37,233.71,287.92"/>
			</g>
			<path class="st5" d="M243.49,312.81c0.46,3.53,0.42,10.81,0.88,14.34c0.15,1.15,4.63,5.09,5.43,5.79
				c7.11,6.15,8.76,15.4,11.41,24.74c-14.76,0.65-19.04-5.81-33.76-6.98c1.9-7.39,4.89-16.04,7.74-23.12
				c2.04-5.08,3.24-13.75,3.24-13.75c0.27-0.52,0.71-1.12,1.28-0.99c0.57,0.13,0.04,1.28-0.26,0.78"/>
			<path class="st38" d="M256.91,287.01c-0.7,1.74-4.06,3.29-5.86,3.82c-1.8,0.53-3.69,0.74-5.57,0.86
				c-10.59,0.68-13.17,10.01-14.17,18.33c-2.47-3.51-7.69-15.51-3.55-22.47c3.1-5.21,7.41-8.67,13.37-9.78
				C247.1,276.66,257.04,278.24,256.91,287.01"/>
			<path class="st5" d="M235.63,301.43c-0.44-1.47-2.27-2.3-3.72-1.78c-1.45,0.52-2.32,2.2-2.06,3.72c0.37,2.14,2.98,3.56,4.97,2.7"
				/>
			<g>
				<path class="st38" d="M251.58,297.98c-0.29,2.23-0.02,4.45,0.78,6.55c0.11,0.28-0.01,0.68-0.23,0.87
					c-0.68,0.6-1.55,0.95-2.47,0.86c-0.48-0.05-0.89-0.38-0.89-0.89c0-0.45,0.41-0.94,0.89-0.89c0.45,0.04,0.85-0.02,1.2-0.33
					c-0.08,0.29-0.15,0.58-0.23,0.87c-0.86-2.22-1.15-4.66-0.85-7.02c0.06-0.48,0.37-0.89,0.89-0.89
					C251.12,297.09,251.64,297.5,251.58,297.98L251.58,297.98z"/>
			</g>
			<g>
				<path class="st38" d="M255.9,299.28c-0.1,0.37-0.32,0.75-0.62,0.99c-0.37,0.31-0.77,0.48-1.25,0.51
					c-0.19,0.01-0.4-0.02-0.59-0.07c-0.19-0.05-0.39-0.13-0.55-0.24c-0.17-0.11-0.33-0.23-0.45-0.39c-0.18-0.23-0.29-0.42-0.4-0.69
					c-0.08-0.2-0.02-0.51,0.09-0.69c0.11-0.19,0.32-0.36,0.53-0.41c0.23-0.05,0.49-0.04,0.69,0.09c0.06,0.05,0.12,0.09,0.18,0.14
					c0.11,0.11,0.19,0.24,0.23,0.39c0.01,0.02,0.01,0.04,0.02,0.06c-0.03-0.07-0.06-0.14-0.09-0.21c0.04,0.09,0.09,0.16,0.14,0.24
					c-0.05-0.06-0.09-0.12-0.14-0.18c0.06,0.07,0.12,0.14,0.2,0.2c-0.06-0.05-0.12-0.09-0.18-0.14c0.08,0.06,0.17,0.11,0.27,0.16
					c-0.07-0.03-0.14-0.06-0.21-0.09c0.1,0.04,0.19,0.07,0.3,0.08c-0.08-0.01-0.16-0.02-0.24-0.03c0.09,0.01,0.18,0.01,0.28,0
					c-0.08,0.01-0.16,0.02-0.24,0.03c0.09-0.01,0.18-0.04,0.26-0.07c-0.07,0.03-0.14,0.06-0.21,0.09c0.09-0.04,0.18-0.09,0.26-0.15
					c-0.06,0.05-0.12,0.09-0.18,0.14c0.08-0.06,0.15-0.13,0.22-0.21c-0.05,0.06-0.09,0.12-0.14,0.18c0.06-0.08,0.11-0.17,0.15-0.26
					c-0.03,0.07-0.06,0.14-0.09,0.21c0.02-0.05,0.03-0.09,0.05-0.14c0.06-0.22,0.22-0.42,0.41-0.53c0.19-0.11,0.47-0.16,0.69-0.09
					C255.74,298.34,256.03,298.8,255.9,299.28L255.9,299.28z"/>
			</g>
			<g>
				<path class="st38" d="M248.03,297.83c0.74,0.03,1.17,0.72,1.01,1.41c-0.09,0.4-0.31,0.75-0.57,1.06c-0.44,0.53-1.13,0.9-1.81,1
					c-1.65,0.24-3.09-0.84-3.63-2.36c-0.16-0.44,0.18-1,0.62-1.1c0.5-0.11,0.93,0.15,1.1,0.62c0.01,0.03,0.02,0.06,0.03,0.09
					c0.02,0.06,0.01,0.04-0.03-0.07c-0.01,0.03,0.06,0.11,0.07,0.14c0.05,0.1,0.11,0.2,0.18,0.29c0.1,0.15-0.12-0.13,0.01,0.02
					c0.04,0.04,0.07,0.08,0.1,0.12c0.05,0.06,0.23,0.16,0.25,0.23c-0.02-0.06-0.14-0.1-0.01-0.01c0.04,0.03,0.09,0.06,0.13,0.08
					c0.05,0.03,0.11,0.06,0.16,0.09c0.03,0.02,0.19,0.06,0.06,0.03c-0.14-0.04,0.04,0.01,0.06,0.02c0.06,0.02,0.12,0.04,0.18,0.05
					c0.02,0,0.04,0.01,0.06,0.01c0.08,0.01,0.08,0.02,0,0c-0.08-0.01-0.08-0.01,0,0c0.03,0,0.06,0,0.09,0.01c0.05,0,0.1,0,0.15,0
					c0.03,0,0.06,0,0.09-0.01c0.07-0.01,0.04,0-0.09,0.02c0.01-0.02,0.26-0.05,0.29-0.06c0.04-0.01,0.13-0.06,0.17-0.06
					c-0.07,0-0.16,0.07-0.02,0.01c0.1-0.05,0.19-0.11,0.28-0.16c0.14-0.09-0.1,0.09-0.02,0.01c0.04-0.03,0.07-0.06,0.11-0.1
					c0.04-0.04,0.08-0.08,0.12-0.13c0.13-0.14-0.09,0.16,0,0c0.01-0.02,0.16-0.24,0.14-0.25c-0.05,0.12-0.06,0.14-0.04,0.08
					c0.01-0.03,0.02-0.06,0.03-0.08c-0.01,0.05-0.01,0.09-0.02,0.14c0.01,0.22,0.13,0.4,0.33,0.54c0.15,0.04,0.3,0.08,0.45,0.12
					c-0.01,0-0.03,0-0.04,0c-0.47-0.02-0.92-0.4-0.89-0.89C247.15,298.26,247.53,297.81,248.03,297.83L248.03,297.83z"/>
			</g>
			<g>
				<path class="st38" d="M250.29,310.09c-3.72,1.43-7.88,0.06-10.17-3.14c-0.28-0.39-0.07-1,0.32-1.22
					c0.45-0.26,0.94-0.07,1.22,0.32c1.86,2.58,5.23,3.44,8.15,2.31c0.45-0.17,0.98,0.19,1.1,0.62
					C251.05,309.49,250.74,309.91,250.29,310.09L250.29,310.09z"/>
			</g>
			<path class="st7" d="M248.39,330.03c0.78,7.11,3.92,20.38,5.53,27.35c-4.59-10.99-14.76-18.02-20.23-28.74
				c-11.41,11.18-12.59,26.58-11.78,42.54c0.81,15.96-3.03,20.36-3.01,36.34c12.29,0,34.24,0.64,46.41,0.43
				c1.55-8.99,1.99-15.35,1.87-31.29c-0.07-8.68-1.47-17.39-4.17-25.64C260.32,342.76,255.56,334.92,248.39,330.03
				c0.96,1.97,1.91,3.94,2.87,5.91"/>
			<g>
				<path class="st38" d="M249.55,330.42c2.3,10.89,4.44,21.81,6.42,32.75c-0.68,0-1.37,0-2.05,0c0.75-3.22,1.51-6.44,2.26-9.65
					c0.38-1.61,0.75-3.22,1.13-4.83c0.02-0.1,0.15-0.94,0.25-0.67c-0.05-0.14-0.79-0.55-0.92-0.64c-0.71-0.5-1.42-0.99-2.13-1.49
					c-0.43-0.3-0.57-0.7-0.49-1.2c0.55-3.63,0.92-7.19,0.82-10.87c0.26,0.34,0.52,0.68,0.78,1.03c-2.59-0.72-4.77-2.47-7.38-3.12
					c-1.33-0.33-0.77-2.39,0.57-2.05c2.62,0.65,4.79,2.4,7.38,3.12c0.46,0.13,0.77,0.56,0.78,1.03c0.1,3.87-0.32,7.61-0.9,11.44
					c-0.16-0.4-0.33-0.8-0.49-1.2c0.81,0.57,1.63,1.13,2.44,1.7c0.59,0.41,1.29,0.78,1.53,1.5c0.22,0.65-0.04,1.37-0.19,2
					c-0.23,0.99-0.46,1.98-0.7,2.97c-0.9,3.84-1.8,7.67-2.69,11.51c-0.23,0.98-1.86,1.05-2.05,0c-1.98-10.95-4.12-21.87-6.42-32.75
					C247.21,329.65,249.26,329.08,249.55,330.42L249.55,330.42z"/>
			</g>
			<g>
				<path class="st38" d="M252.89,361.23c-3.02-12.63-12.99-21.73-20.2-32.01c0.61,0,1.23,0,1.84,0c-1.63,2.28-2.86,4.76-3.66,7.45
					c-0.16-0.4-0.33-0.8-0.49-1.2c4.02,2.88,7.88,5.97,11.56,9.27c0.56,0.5,0.3,1.29-0.22,1.67c-1.1,0.82-1.96,1.94-2.46,3.22
					c-0.09-0.35-0.18-0.69-0.27-1.04c5.2,5.35,10.8,10.3,16.76,14.79c1.08,0.82,0.02,2.67-1.08,1.84
					c-6.1-4.6-11.85-9.65-17.19-15.13c-0.24-0.25-0.41-0.69-0.27-1.04c0.72-1.84,1.85-3.31,3.44-4.49
					c-0.07,0.56-0.14,1.11-0.22,1.67c-3.54-3.19-7.25-6.17-11.13-8.94c-0.38-0.27-0.63-0.72-0.49-1.2c0.85-2.85,2.14-5.54,3.87-7.96
					c0.48-0.68,1.36-0.69,1.84,0c7.34,10.45,17.35,19.67,20.42,32.52C255.26,361.99,253.21,362.56,252.89,361.23L252.89,361.23z"/>
			</g>
			<path class="st7" d="M226.59,336.9c-26.23,19.91-36.48,58.32-23.65,88.65c8.31,19.66,24.65,34.87,42.23,46.98
				c28.02,19.3,60.37,32.27,93.97,37.66c0.59-12.58,1.96-25.13,4.1-37.54c-31.9-4.13-61.65-21.48-82.02-46.38
				c-20.37-24.9-31.43-56.96-32.15-89.12"/>
		</g>
	</g>
</g>
</svg>
