<?xml version="1.0" encoding="utf-8"?>
<!-- Generator: Adobe Illustrator 25.4.1, SVG Export Plug-In . SVG Version: 6.00 Build 0)  -->
<svg version="1.1" id="Capa_1" xmlns="http://www.w3.org/2000/svg" xmlns:xlink="http://www.w3.org/1999/xlink" x="0px" y="0px"
	 viewBox="0 0 1080 1080" style="enable-background:new 0 0 1080 1080;" xml:space="preserve">
<style type="text/css">
	.st0{fill:#F5F5F5;}
	.st1{fill:#37444D;}
	.st2{fill:#62798A;}
	.st3{fill:#566A79;}
	.st4{fill:#263238;}
	.st5{fill:#FFBE9D;}
	.st6{fill:#123B45;}
	.st7{fill:#0EB1BB;}
	.st8{fill:#B78876;}
	.st9{fill:#855C25;}
	.st10{fill:#231F20;}
	.st11{fill:#1683B3;}
	.st12{fill:#FFFFFF;}
	.st13{fill:#27A7DF;}
	.st14{fill:#67CDF5;}
	.st15{fill:#D5545B;}
	.st16{fill:#EC6161;}
	.st17{fill:#FFCC02;}
	.st18{fill:#164552;}
	.st19{fill:#086A70;}
	.st20{fill:#EDEEF0;}
	.st21{fill:#1D4F60;}
	.st22{fill:#D14E54;}
	.st23{fill:#1B1F41;}
	.st24{fill:#F9D01E;}
	.st25{fill:#1D8BB4;}
	.st26{fill:#143E49;}
	.st27{fill:#245160;}
	.st28{fill:#E96348;}
	.st29{fill:#282733;}
	.st30{fill:#F9A427;}
	.st31{fill:#339847;}
	.st32{fill:#B55C27;}
	.st33{fill:#F6F8F7;}
	.st34{fill:#FFFFFF;stroke:#000000;stroke-width:0.1529;stroke-miterlimit:10;}
	.st35{fill:#2973B7;}
	.st36{fill:#FFFFFF;stroke:#1C3664;stroke-width:0.2351;stroke-miterlimit:10;}
	.st37{fill:#F7F7FB;}
	.st38{fill:#383838;}
	.st39{clip-path:url(#SVGID_00000026132329254266045560000007879936756806124429_);}
	.st40{fill:#1374AA;}
	.st41{fill:#8A5D3B;}
	.st42{fill:#F7981D;}
	.st43{fill:#F180AC;}
	.st44{fill:#48C1C6;}
	.st45{fill:#1383B3;}
	.st46{fill:#E2709F;}
	.st47{fill:#073145;}
	.st48{fill:#434343;}
	.st49{fill:#626262;}
	.st50{fill:#767676;}
	.st51{fill:#9F9F9F;}
	.st52{fill:#BEBEBE;}
	.st53{fill:#E1E1E1;}
	.st54{fill:#EFEFEF;}
	.st55{fill:#FAFAFA;}
	.st56{fill:#465662;}
	.st57{fill:#7A8C9B;}
	.st58{fill:#91A1AD;}
	.st59{fill:#B1BCC4;}
	.st60{fill:#D0D6DB;}
	.st61{fill:none;stroke:#263238;stroke-width:9;stroke-linecap:round;stroke-miterlimit:10;}
	.st62{fill:#1C2042;}
	.st63{fill:#3388B8;}
	.st64{fill:#4195D1;}
	.st65{fill:#D0ECF2;stroke:#164552;stroke-width:0.6096;stroke-miterlimit:10;}
	.st66{fill:#273054;}
	.st67{clip-path:url(#SVGID_00000091735230268218751660000013357503326377773707_);}
	.st68{fill:#351C42;}
	.st69{fill:#EC6061;}
	.st70{fill:#BEBDDE;}
	.st71{fill:#F59698;}
	.st72{fill:#532E5C;}
	.st73{fill:#47254F;}
	.st74{fill:#4096D2;}
	.st75{fill:#1B75BB;}
	.st76{fill:#2D7DAA;}
	.st77{fill:#E08085;}
	.st78{fill:#D4545C;}
	.st79{fill:#3E7E64;}
	.st80{fill:#D7B029;}
	.st81{fill:#4D9C80;}
	.st82{fill:#F6BD4B;}
	.st83{fill:#4194D0;}
	.st84{fill:#174552;}
	.st85{fill:#CFEBF2;stroke:#174552;stroke-width:0.6526;stroke-miterlimit:10;}
	.st86{fill:#205060;}
</style>
<path class="st0" d="M219.82,887.16c-47.89-17.86-24.4-28.06-39.17-76.99c-14.78-48.93-19.17-100.83-37.54-148.53
	c-14.92-38.73-38.64-73.56-53.91-112.15c-21.39-54.06-25.39-113.32-26.01-171.46c-0.52-48.31,1.65-98.71,24.66-141.2
	c50.91-93.98,192.65-108.84,279.71-46.83c24.02,17.11,45.42,38.96,73.05,49.27c65.75,24.53,149.6-21.99,205.34,20.65
	c53.15,40.66,36.28,130.14,81.12,179.82c49.2,54.5,140.21,31.77,207.18,61.88c134.39,60.42,70.92,188.93,43.33,218.18
	c-20.76,22.01-51.71,46.84-40.55,74.96c5.49,13.85,19.86,21.78,29.26,33.33c22.32,27.43,11.41,71.09-14.4,95.26
	c-25.82,24.17-61.88,33.44-96.52,40.53c-135.85,27.83-275.78,35.62-413.88,23.04c-91.03-8.29-192.85-33.18-238-112.66"/>
<g>
	<g>
		<g>
			<g>
				<path class="st4" d="M191.35,496.24c0,0-0.9-21.43,0.16-35.2c1.04-13.4,25.35-9.71,34.12-19.75
					c10.36-11.88,5.14-30.29,0.11-45.34c-5.03-15.06-8.04-34.7,4.47-44.2c10.92-8.29,28.88-4.11,37.37-14.95
					c2.7-3.45,3.86-7.85,4.94-12.12c5.24-20.69,10.94-42.82,26.73-56.91c17.17-15.33,42.31-17.34,65.01-14.4
					c22.51,2.91,46.87,11.88,56.91,32.59c5.08,10.47,5.73,22.51,8.83,33.75c3.1,11.24,10.07,22.83,21.28,25.31
					c11.34,2.51,22.18-5.07,33.43-7.91c19.53-4.92,41.81,6.62,49.39,25.6c5.55,13.89,3.69,29.85,8.73,43.93
					c7.44,20.79,28.41,33.47,49.27,39.79c20.85,6.32,42.96,8.03,63.35,15.77c20.39,7.74,39.9,23.75,43.07,45.63
					c1.6,11.06-1.09,22.79,2.8,33.26c9.26,24.89,23.95,26.19,39.06,47.93c6.05,8.7-1.33,17.93,0.06,28.48
					c0.46,3.51-8.16,28.13-8.91,31.58c-1.99,9.12,1.26,97.14-7.12,100.96c-35.17,16.03-54.74,48.54-91.88,59.05
					c-127,35.93-249.76-115.73-381.65-114.4c-20.03,0.2-40.42,11.31-51.39-5.75C199.47,688.92,195.08,550.81,191.35,496.24
					L191.35,496.24z"/>
			</g>
		</g>
		<g>
			<g>
				<path class="st29" d="M359.75,255.85c-7.36,16.86,6.9,33.6,20.63,41.97c7.77,4.74,16.14,8.44,23.83,13.32
					c8.23,5.22,14.67,11.85,18.71,20.75c7.25,15.98,8.31,36.06,23.5,47.41c3.35,2.51,7.22,4.21,11.37,4.89
					c5.3,0.87,10.73,0.27,16.02,1.15c8.44,1.4,15.06,7.06,19.69,13.95c10.11,15.03,10.67,33.73,18.36,49.8
					c3.64,7.6,9.05,14.02,16.16,18.63c6.35,4.11,13.6,6.7,20.85,8.76c15.15,4.31,31.82,6.32,45.04,15.45
					c14.17,9.79,18.88,26.63,23.02,42.34c2.1,7.95,4.15,15.94,7.36,23.54c3.43,8.13,8.29,15.26,14.73,21.36
					c13.67,12.95,32.27,21.42,41.62,38.45c2.23,4.06,3.7,8.48,4.13,13.09c0.18,1.92,3.22,1.93,3.04,0
					c-1.77-18.89-17.73-31.26-31.93-41.8c-7.86-5.83-15.92-11.82-21.79-19.73c-5.01-6.75-8.14-14.6-10.58-22.56
					c-4.73-15.42-7.02-32.4-16.55-45.89c-9.27-13.12-24.08-18.66-39.14-22.53c-14.82-3.81-31.53-6.4-43.31-16.92
					c-14.18-12.66-15.17-32.59-21.34-49.34c-2.75-7.47-6.55-14.81-12.18-20.57c-6.2-6.35-13.82-9.18-22.63-9.52
					c-5.06-0.19-10.23-0.04-15-2.01c-3.93-1.62-7.25-4.36-10-7.54c-5.98-6.91-9-15.64-11.63-24.21c-2.79-9.1-5.42-18.6-11.18-26.38
					c-5.2-7.02-12.43-12.01-19.99-16.27c-15.26-8.6-34.87-16.49-39.26-35.43c-0.98-4.24-0.67-8.65,1.07-12.65
					C363.14,255.61,360.52,254.08,359.75,255.85L359.75,255.85z"/>
			</g>
		</g>
		<g>
			<g>
				<path class="st29" d="M358.38,255.46c2.44,9.74-0.86,19.59-6.42,27.67c-5.78,8.39-14.08,14.52-22.57,20.01
					c-15.79,10.2-34.23,19.68-42.2,37.71c-1.7,3.83-2.76,7.87-3.1,12.05c-0.35,4.44,0.03,8.89,0.06,13.33
					c0.02,4.24-0.16,8.8-2.3,12.59c-2.21,3.91-6.14,5.78-10.1,7.55c-3.78,1.69-7.49,3.5-10.07,6.84c-2.04,2.64-3.04,5.78-3.36,9.06
					c-0.69,7.23,1.66,14.49,2.87,21.55c0.7,4.07,1.19,8.37,0.37,12.46c-0.91,4.53-3.55,7.97-6.91,11.05
					c-3.35,3.07-7.08,5.76-9.87,9.39c-3.28,4.28-4.47,9.46-3.37,14.73c0.4,1.9,3.33,1.09,2.93-0.8
					c-2.22-10.68,7.27-15.98,13.76-22.43c5.55-5.51,7.41-12.25,6.72-19.89c-0.67-7.44-3.15-14.63-3.54-22.09
					c-0.18-3.4,0.15-6.91,1.91-9.9c2.23-3.79,6.2-5.62,10.07-7.35c3.71-1.66,7.35-3.44,9.89-6.71c2.48-3.2,3.48-7.11,3.84-11.07
					c0.81-8.81-1.15-17.56,1.77-26.15c6.5-19.13,26.23-29.02,42.14-39.29c9.15-5.91,17.93-12.55,24.05-21.66
					c5.79-8.63,8.91-19.15,6.34-29.41C360.84,252.78,357.91,253.58,358.38,255.46L358.38,255.46z"/>
			</g>
		</g>
		<g>
			<g>
				<path class="st29" d="M359.73,271.41c-3.15,9.29-0.9,19.17,3.66,27.6c4.97,9.2,12.71,16.37,20.23,23.49
					c7.71,7.3,15,14.81,19.95,24.27c4.99,9.54,7.32,19.89,7.71,30.58c0.34,9.27-0.14,19.1,3.79,27.75
					c3.18,7.01,9.24,11.57,16.1,14.75c11.65,5.4,30.13,7.83,33.65,22.41c1.82,7.55-0.27,17.66,5.51,23.81
					c1.41,1.5,3.24,2.49,5.21,3.06c2.77,0.81,5.79,0.75,8.12,2.67c3.67,3.03,4.46,8.57,4.89,12.99c0.19,1.91,3.23,1.93,3.04,0
					c-0.4-4.06-1.04-8.3-3.14-11.89c-2.26-3.86-5.67-5.35-9.93-6.2c-4.27-0.84-7.02-2.79-8.28-7c-1.09-3.66-1.14-7.55-1.48-11.32
					c-0.64-7.18-2.48-13.7-8.3-18.43c-5.31-4.3-11.93-6.6-18.27-8.94c-6.77-2.5-14.02-5.03-19.33-10.09
					c-6.94-6.61-7.98-16.33-8.3-25.37c-0.36-10.17-0.61-20.04-3.88-29.81c-3.23-9.64-8.5-18.36-15.36-25.88
					c-8.07-8.86-17.94-16.17-25.11-25.83c-6.69-9.03-11.31-20.7-7.54-31.83C363.28,270.37,360.35,269.58,359.73,271.41
					L359.73,271.41z"/>
			</g>
		</g>
		<g>
			<g>
				<path class="st29" d="M356.85,284.03c-3.23,12.39-8.86,24.06-16.6,34.3c-8.09,10.71-19.6,18.39-26.71,29.85
					c-3.51,5.66-6.16,11.79-8.75,17.9c-2.68,6.34-5.52,12.8-5.95,19.75c-0.41,6.67,1.68,13.14,2.8,19.64
					c1.23,7.15,0.18,13.51-3.31,19.88c-6.12,11.21-17.92,24.21-10.63,37.68c0.93,1.71,3.55,0.19,2.62-1.52
					c-6.57-12.13,5.16-24.63,10.63-34.64c2.95-5.4,4.69-11.12,4.24-17.3c-0.48-6.74-2.86-13.19-3.31-19.93
					c-0.46-7.01,1.96-13.56,4.63-19.94c2.61-6.25,5.24-12.54,8.67-18.41c6.79-11.61,18.12-19.26,26.35-29.74
					c8.54-10.86,14.76-23.4,18.23-36.74C360.28,282.96,357.34,282.15,356.85,284.03L356.85,284.03z"/>
			</g>
		</g>
		<g>
			<g>
				<path class="st29" d="M357.62,254.17c-4.52,13.77-14.99,25.41-28.36,31.28c-14.1,6.19-32.48,6.17-42.15,19.88
					c-2.59,3.67-3.58,8-5.14,12.13c-1.51,4-4.1,8.06-8.7,8.71c-1.09,0.15-1.51,1.85-0.67,2.52c2.2,1.75,5.38,1.73,7.23-0.54
					c1.22-1.5-0.92-3.64-2.15-2.13c-0.72,0.88-1.93,1.34-2.93,0.54c-0.22,0.84-0.45,1.68-0.67,2.52c8.23-1.17,10.44-10.1,12.8-16.61
					c2.86-7.87,9.48-12.79,17.09-15.84c8.33-3.34,17.34-4.6,25.63-8.06c6.91-2.89,13.18-7.23,18.35-12.62
					c5.73-5.97,10.03-13.14,12.6-20.98C361.16,253.12,358.23,252.33,357.62,254.17L357.62,254.17z"/>
			</g>
		</g>
		<g>
			<g>
				<path class="st29" d="M360.5,260c-0.51,11.92,8.59,23.55,20.56,25.56c4.06,0.68,8.23,0.27,12.28,0.98
					c3.45,0.6,6.69,1.93,9.69,3.69c6.31,3.7,10.84,9.12,16.31,13.8c1.02,0.88,2.29,1.55,3.64,1.02c1.06-0.41,1.68-1.49,1.22-2.58
					c-0.91-2.15-4.27-1.71-3.83,0.84c0.33,1.91,3.26,1.1,2.93-0.8c-0.01-0.08-0.03-0.17-0.04-0.25c-0.13,0.49-0.26,0.98-0.39,1.47
					c0.04-0.04,0.08-0.07,0.12-0.11c-0.36,0.15-0.72,0.29-1.07,0.44c-0.18-0.12-0.35-0.25-0.53-0.37c0.05-0.39,0.1-0.77,0.15-1.16
					c0.59-0.88-6.47-6.83-7.31-7.59c-2.33-2.1-4.76-4.1-7.36-5.85c-5.76-3.89-11.85-5.73-18.78-6c-3.51-0.14-6.99-0.26-10.31-1.53
					c-2.95-1.13-5.62-2.98-7.82-5.23c-4.27-4.37-6.7-10.23-6.44-16.32C363.62,258.06,360.58,258.06,360.5,260L360.5,260z"/>
			</g>
		</g>
		<g>
			<path class="st5" d="M693.98,537.12c-3.35-18.64-6.06-37.39-8.12-56.22c-1.5-13.68-2.57-28.02,2.75-40.72
				c0.45-1.07,1.1-2.26,2.25-2.47c1.13-0.21,2.17,0.63,2.99,1.44c15.12,14.92,20.99,38.4,14.64,58.59
				c-1.83,5.83-4.58,11.34-6.74,17.06c-2.88,7.62-4.71,15.63-5.43,23.74c-0.04,0.48-0.15,1.06-0.6,1.24
				c-0.46,0.18-0.91-0.67-0.42-0.76L693.98,537.12z"/>
		</g>
		<g>
			<g>
				<path class="st5" d="M627.78,671.01c5.43,34.89,13.86,78.8,20.91,113.51c32.4-78.65,53.76-283.65,59.28-315.14
					c34.61,4.29,45.23,27.04,79.83,31.33c2.6,0.32,20.26,410.26,10.9,414.35c-5.47,2.39-84.96,0.18-91.19,0.41
					c-72.41,2.69-118.43-7.26-189.97-16.59c-1.87-0.24-3.89-0.55-5.2-1.65c-1.39-1.17-1.61-2.93-1.75-4.54
					c-4.29-49.42-7.6-98.89-9.92-148.39c-0.16-3.48-0.28-7.12,1.64-10.24c1.91-3.09,5.55-5.23,9.05-7.25
					c34.18-19.66,68.6-39.43,106.69-53.8c1.53-0.58,3.36-1.14,4.84-0.49c1.48,0.65,1.14,3.03-0.53,2.82L627.78,671.01z"/>
			</g>
		</g>
		<g>
			<g>
				<path class="st7" d="M299.73,463.43c-33.41-1.54-86.58,18.57-109.2,35.1c-10.38,7.58-20.18,16.2-26.46,26.89
					c-7.72,13.14-9.56,28.41-10.89,43.26c-4.91,54.55-4.91,109.46,0.01,164.01c43.82,6.53,88.48,8.38,132.77,5.51
					c-0.38,17-0.76,34-1.14,51c34.98,6.22,69.97,12.44,104.95,18.66c40.6,7.22,82.85,15.1,115.5,38.25
					c2.83-34.01-1.12-117.67-2.18-114.81c42.34-14.02,83.75-25.19,126.15-60.27c-21.6-51.82-38.87-107.69-83.15-145.68
					c-14.84-12.73-27.95-25.08-45.3-34.8c-24.27-13.6-59.53-21.7-87.44-26.93c-32.22-6.05-45.99-3.54-69.08-2.92
					c-29.59,0.79,7.98,4.18-21.61,4.97L299.73,463.43z"/>
			</g>
		</g>
		<g>
			<g>
				<path class="st5" d="M151.04,719.25c-0.82,31.7-1.63,63.4-2.45,95.11c-0.43,16.51-0.85,33.09,1.47,49.46
					c1.37,9.7,3.88,19.65,10.46,27.38c12.86,15.1,36.59,17.23,57.55,17.94c68.19,2.33,136.44,2.93,204.68,3.53
					c90,0.79,247.24,0.71,337.24,1.5c2.81-11.51-70.21-44.01-107.66-56.98c-20.29-7.03-297.74-58.13-369.11-67.28
					c-0.21-29.35-0.74-41.32-1.18-70.66H151.04z"/>
			</g>
		</g>
		<g>
			<path class="st7" d="M151.63,605.66c0.78,42,0.31,84.02-1.42,126c53.07,3.33,106.32,4.35,159.5,3.05
				c2.92-0.07,6.21-0.31,8.08-2.35c1.4-1.52,1.6-3.65,1.73-5.63c2.23-32.28,3.45-64.63,3.66-96.98L151.63,605.66z"/>
		</g>
		<g>
			<g>
				<path class="st5" d="M307.48,462.12c10.33-21.22,16.28-44.52,17.38-68.05c20.6-0.7,28.59-0.78,48.74-5.1
					c-6.88,23.63-7.83,44.02-8.98,68.59c9.15,0.11,22.31,1.15,30.81,2.71c1.99,12.27-8.49,26.92-15.63,33.76
					c-9.01,8.63-17.46,6.21-29.95,7.25c-12.88,1.08-26.35,0.83-38.03-4.67c-11.68-5.5-21.15-19.95-20.23-32.74
					c4.85-1.37,9.75-0.17,14.6-1.54L307.48,462.12z"/>
			</g>
		</g>
		<g>
			<path class="st32" d="M319.33,426c14.49,8.2,31.39,15.14,45.88,23.34c-0.68-5.03,3.93-28.9,2.41-35.66
				c-8.14-1.09-15.49-5.25-22.61-9.32c-5.89-3.37-11.78-6.74-17.68-10.11C325.46,404.58,321.2,415.67,319.33,426L319.33,426z"/>
		</g>
		<g>
			<path class="st5" d="M332.9,416.69c-6.47-1.97-11.28-7.64-13.73-13.9c-2.45-6.26-2.86-13.1-2.99-19.81
				c-3.69,2.04-8.56,1.09-11.81-1.6c-3.25-2.68-5.03-6.77-5.77-10.9c-0.57-3.19-0.53-6.67,1.19-9.43c2.79-4.48,9.41-5.52,14.15-3.15
				c-0.86-13.36,3.77-26.99,12.61-37.1c8.84-10.12,21.78-16.61,35.23-17.66c6.5-0.51,13.33,0.28,18.86,3.71
				c5.88,3.65,9.7,9.94,11.69,16.53c1.99,6.59,2.33,13.54,2.6,20.42c0.89,22.24-3.08,48.41-14.93,67.32
				C367.49,431.05,344.08,421.95,332.9,416.69L332.9,416.69z"/>
		</g>
		<g>
			<g>
				<path class="st29" d="M281.85,664.62c0.77,9.95,0.32,20.06,0.19,30.02c-0.2,14.97-0.52,29.93-0.74,44.9
					c-0.18,12.31-0.45,24.66-0.06,36.97c0.14,4.36-0.3,10.77,3.4,13.74c1.7,1.37,3.92,1.9,6.04,2.29c3.36,0.63,6.75,1.13,10.12,1.7
					c6.27,1.05,12.53,2.1,18.8,3.15c51.7,8.66,103.4,17.32,155.11,25.98c49.41,8.28,99.12,15.71,147.84,27.51
					c23.7,5.74,47.22,12.53,69.99,21.26c20.13,7.72,40.2,17.41,56.14,32.12c3.69,3.41,7.12,7.08,10.25,11
					c1.21,1.52,3.35-0.63,2.15-2.13c-13.1-16.38-31.27-27.82-50.19-36.54c-21.05-9.71-43.38-16.81-65.71-22.97
					c-47.63-13.14-96.54-20.9-145.21-29.05c-51.07-8.55-102.15-17.11-153.23-25.66c-12.85-2.15-25.69-4.3-38.54-6.45
					c-6.12-1.03-12.49-1.66-18.5-3.18c-3.23-0.82-4.55-2.47-4.96-5.69c-0.09-0.72-0.15-1.45-0.2-2.17
					c-0.77-10.63-0.42-21.4-0.3-32.05c0.29-26.65,1.61-53.38,0.89-80.03c-0.04-1.57-0.1-3.13-0.22-4.69
					C284.74,662.69,281.7,662.68,281.85,664.62L281.85,664.62z"/>
			</g>
		</g>
		<g>
			<g>
				<path class="st29" d="M672.37,885.12c10.28,1.86,19.66,6.35,28.48,11.77c4.29,2.63,8.45,5.47,12.6,8.31
					c2.06,1.42,4.01,2.95,5.99,4.47c1.51,1.16,2.47,2.02,3.33,3.75c0.86,1.74,3.48,0.22,2.62-1.52c-1.74-3.51-5.37-5.79-8.51-8
					c-4.54-3.19-9.15-6.31-13.86-9.24c-9.21-5.71-19.08-10.52-29.84-12.46C671.27,881.87,670.45,884.77,672.37,885.12L672.37,885.12
					z"/>
			</g>
		</g>
		<g>
			<g>
				<path class="st29" d="M656.95,896.93c2.38,0.13,4.96,1.62,7.06,2.67c3.56,1.77,7,3.76,10.4,5.82
					c5.52,3.34,11.45,6.73,16.3,11.02c1.46,1.29,3.61-0.84,2.15-2.13c-5.17-4.57-11.46-8.21-17.35-11.76
					c-3.56-2.14-7.17-4.22-10.91-6.02c-2.36-1.13-4.97-2.47-7.64-2.61C654.99,893.81,655,896.82,656.95,896.93L656.95,896.93z"/>
			</g>
		</g>
		<g>
			<g>
				<ellipse class="st4" cx="804.33" cy="282.27" rx="120.04" ry="119.06"/>
			</g>
			<g>
				<g>
					<path class="st0" d="M892.97,314.3c-17.84,48.55-71.99,73.57-120.94,55.88c-48.95-17.69-74.18-71.4-56.34-119.95
						c17.84-48.55,71.99-73.57,120.94-55.88C885.58,212.04,910.81,265.75,892.97,314.3z"/>
				</g>
			</g>
			<g>
				<g>
					<path class="st4" d="M701.04,563.99l-5.46-1.97c-10.27-3.71-15.61-15.08-11.87-25.27L738.8,386.8
						c3.74-10.19,15.21-15.48,25.48-11.77l5.46,1.97c10.27,3.71,15.61,15.08,11.87,25.27l-55.09,149.95
						C722.78,562.41,711.31,567.7,701.04,563.99z"/>
				</g>
			</g>
		</g>
		<g>
			<g>
				<g>
					<path class="st5" d="M798.56,416.15c-2.11-1.28-4.78-1.08-7.23-0.77c-18.58,2.38-36.57,8.56-53.1,17.3
						c-4.21,2.22-8.44,4.72-11.28,8.51c-2.84,3.8-3.97,9.22-1.56,13.29c3.51,5.93,11.94,6.15,18.84,5.49
						c11.15-1.08,22.26-2.58,33.3-4.48c10.2-1.76,21.4-4.56,27.11-13.12c4.92-7.38,3.97-18.08-2.17-24.5
						c-2.72-2.84-7.54-4.77-10.46-2.12L798.56,416.15z"/>
				</g>
			</g>
		</g>
		<g>
			<g>
				<path class="st5" d="M741.62,460.61c-9.12,1.22-17.63,6.37-22.9,13.85c-2.44,3.46-4.24,7.72-3.34,11.85
					c1.68,7.75,11.27,10.61,19.24,11.09c14.74,0.89,29.56-1.33,43.76-5.35c8.59-2.43,17.26-5.68,23.66-11.85
					c6.4-6.17,10.03-15.9,6.78-24.15c-3.25-8.25-14.76-12.87-21.85-7.48L741.62,460.61z"/>
			</g>
		</g>
		<g>
			<g>
				<path class="st5" d="M733.05,497.16c-5.15,2.19-10.44,4.48-14.39,8.42c-3.95,3.94-6.3,10-4.29,15.19
					c3.03,7.84,13.36,9.47,21.82,9.37c12.84-0.16,25.67-1.5,38.27-3.99c8.75-1.73,17.68-4.16,24.6-9.74
					c6.92-5.58,11.34-15.05,8.58-23.46c-2.5-7.63-11.04-12.8-19.03-11.53L733.05,497.16z"/>
			</g>
		</g>
		<g>
			<g>
				<path class="st29" d="M490.71,654.81c8.2,43.93,12.39,88.56,12.47,133.24c0.02,12.6-0.28,25.2-0.9,37.78
					c-0.1,1.94,2.94,1.93,3.04,0c2.22-45.04,0.3-90.24-5.74-134.93c-1.67-12.34-3.65-24.65-5.94-36.89
					C493.29,652.11,490.36,652.91,490.71,654.81L490.71,654.81z"/>
			</g>
		</g>
		<g>
			<path class="st32" d="M150.33,760.53c43.92-10.03,88.27-18.23,132.89-24.56c2.23-0.83-22.58-2.26-34.49-2.03
				c-32.48,0.62-67.64-0.6-98.36-2.43C150.21,744.34,150.21,751.52,150.33,760.53L150.33,760.53z"/>
		</g>
		<g>
			<g>
				<path class="st29" d="M339.56,351.57c-6.9,1.45-12.5,7.24-13.34,14.24c-0.87,7.23,3.31,14.51,10.04,17.41
					c6.84,2.95,15.03,1.31,20.06-4.19c4.87-5.32,6.82-14.07,2.31-20.21c-2.41-3.29-6.26-5.34-10-6.8c-3.41-1.33-7.41-1.88-10.3,0.8
					c-1.43,1.33,0.72,3.46,2.15,2.13c2.1-1.96,5.42-0.83,7.74,0.14c2.7,1.13,5.47,2.58,7.41,4.81c4.11,4.72,2.72,12.04-1.04,16.52
					c-3.87,4.61-10.17,6.38-15.92,4.5c-5.59-1.84-9.44-7.2-9.53-13.03c-0.1-6.56,4.9-12.09,11.23-13.42
					C342.28,354.07,341.47,351.16,339.56,351.57L339.56,351.57z"/>
			</g>
		</g>
		<g>
			<g>
				<path class="st29" d="M381.75,349.32c-6.9,1.45-12.5,7.24-13.34,14.24c-0.87,7.23,3.32,14.51,10.04,17.41
					c6.85,2.95,15.03,1.31,20.06-4.19c4.87-5.32,6.82-14.07,2.31-20.21c-2.41-3.29-6.26-5.34-10-6.8c-3.41-1.33-7.41-1.88-10.3,0.8
					c-1.43,1.33,0.72,3.46,2.15,2.13c2.1-1.96,5.42-0.83,7.74,0.14c2.69,1.13,5.47,2.58,7.41,4.81c4.11,4.72,2.72,12.04-1.04,16.52
					c-3.87,4.61-10.17,6.38-15.92,4.5c-5.59-1.84-9.44-7.2-9.53-13.03c-0.1-6.56,4.9-12.09,11.23-13.42
					C384.47,351.82,383.66,348.92,381.75,349.32L381.75,349.32z"/>
			</g>
		</g>
		<g>
			<g>
				<path class="st29" d="M370.45,364.4c-3.77-1.84-7.95-1.8-11.67,0.17c-1.73,0.92-0.19,3.52,1.53,2.6
					c2.71-1.44,5.84-1.52,8.6-0.17C370.66,367.86,372.2,365.26,370.45,364.4L370.45,364.4z"/>
			</g>
		</g>
		<g>
			<g>
				<path class="st29" d="M328.32,365.92c-3.57-5.59-14.91-19.17-22.27-11.49c-1.35,1.41,0.8,3.54,2.15,2.13
					c3.09-3.23,7.74,0.43,10.28,2.58c2.83,2.39,5.23,5.19,7.22,8.3C326.74,369.08,329.37,367.56,328.32,365.92L328.32,365.92z"/>
			</g>
		</g>
		<g>
			<g>
				<path class="st29" d="M367.21,376.82c-0.34,6.75-0.32,13.51,0.04,20.26c0.51-0.5,1.01-1.01,1.52-1.51
					c-1.44,0.14-2.89,0.27-4.33,0.41c-1.93,0.18-1.95,3.2,0,3.01c1.44-0.14,2.89-0.27,4.33-0.41c0.78-0.07,1.57-0.63,1.52-1.51
					c-0.36-6.75-0.37-13.51-0.04-20.26C370.35,374.88,367.31,374.88,367.21,376.82L367.21,376.82z"/>
			</g>
		</g>
		<g>
			<g>
				<path class="st29" d="M338.99,372.44c3.56,3.92,9.47,3.97,13.15,0.19c1.36-1.4-0.79-3.53-2.15-2.13
					c-2.58,2.65-6.38,2.53-8.86-0.19C339.82,368.86,337.68,371,338.99,372.44L338.99,372.44z"/>
			</g>
		</g>
		<g>
			<g>
				<path class="st29" d="M378.52,369.64c0.76,2.43,2.92,4.12,5.51,4.29c2.22,0.15,6.07-0.99,6.8-3.37
					c0.16-0.51-0.02-1.09-0.39-1.47c-0.06-0.06-0.12-0.12-0.18-0.18c-0.51-0.51-1.22-0.52-1.84-0.24c-0.06,0.03-0.13,0.06-0.2,0.09
					c-1.77,0.82-0.23,3.42,1.53,2.6c0.07-0.03,0.13-0.06,0.2-0.09c-0.61-0.08-1.23-0.16-1.84-0.24c0.06,0.06,0.12,0.12,0.18,0.18
					c-0.13-0.49-0.26-0.98-0.39-1.47c0.19-0.62-0.77,0.4-1.11,0.57c-0.78,0.39-1.63,0.64-2.5,0.58c-1.31-0.08-2.43-0.81-2.83-2.08
					C380.87,366.99,377.94,367.78,378.52,369.64L378.52,369.64z"/>
			</g>
		</g>
		<g>
			<g>
				<path class="st29" d="M401.95,366.38c-1.58-0.88-3.28-1.49-5.08-1.77c-0.81-0.12-1.63,0.2-1.87,1.05
					c-0.2,0.71,0.25,1.73,1.06,1.85c1.55,0.24,2.99,0.7,4.35,1.47C402.12,369.93,403.65,367.33,401.95,366.38L401.95,366.38z"/>
			</g>
		</g>
		<g>
			<g>
				<path class="st29" d="M361.43,406.55c-3.21,1.43-6.73,0.88-9.53-1.14c-1.58-1.14-3.1,1.47-1.53,2.6
					c3.73,2.69,8.44,2.99,12.6,1.14C364.74,408.36,363.2,405.77,361.43,406.55L361.43,406.55z"/>
			</g>
		</g>
		<g>
			<g>
				<path class="st29" d="M503.28,711.15c31.78-11.7,62.89-25.16,93.13-40.36c8.66-4.35,17.24-8.84,25.75-13.47
					c1.72-0.93,0.18-3.54-1.53-2.6c-29.62,16.09-60.14,30.55-91.41,43.2c-8.86,3.58-17.78,7.02-26.75,10.33
					C500.65,708.91,501.44,711.83,503.28,711.15L503.28,711.15z"/>
			</g>
		</g>
		<g>
			<g>
				<path class="st29" d="M500.57,703.98c31.48-11.22,62.18-24.61,91.76-40.11c8.38-4.39,16.68-8.96,24.88-13.68
					c1.69-0.97,0.16-3.58-1.53-2.6c-28.71,16.52-58.57,31.07-89.34,43.42c-8.79,3.53-17.65,6.88-26.58,10.06
					C497.94,701.72,498.73,704.64,500.57,703.98L500.57,703.98z"/>
			</g>
		</g>
		<g>
			<g>
				<path class="st29" d="M150.26,710.35c17.92,0.83,35.86,1.33,53.79,1.84c16.75,0.48,33.5,0.98,50.25,1.16
					c1.85,0.02,3.7,0.08,5.55,0c7.79-0.35,15.43-0.74,23.24-0.22c1.95,0.13,1.94-2.88,0-3.01c-7.71-0.52-15.29-0.23-22.99,0.21
					c-1.34,0.08-2.69,0.04-4.04,0.03c-6.49-0.04-12.97-0.2-19.45-0.34c-19.64-0.44-39.29-1-58.93-1.64
					c-9.14-0.3-18.29-0.61-27.43-1.03C148.3,707.25,148.31,710.26,150.26,710.35L150.26,710.35z"/>
			</g>
		</g>
		<g>
			<g>
				<path class="st29" d="M282.54,701.7c-34.52,0.14-69.04-0.3-103.54-1.32c-9.78-0.29-19.55-0.63-29.32-1.01
					c-1.96-0.08-1.95,2.94,0,3.01c34.49,1.35,69.01,2.13,103.53,2.31c9.78,0.05,19.56,0.06,29.34,0.02
					C284.49,704.71,284.5,701.69,282.54,701.7L282.54,701.7z"/>
			</g>
		</g>
		<g>
			<g>
				<path class="st29" d="M248.34,788.42c16.03,0.6,32.13,2.19,47.91,5.06c1.91,0.35,2.73-2.56,0.81-2.91
					c-16.05-2.93-32.42-4.56-48.72-5.17C246.38,785.33,246.38,788.34,248.34,788.42L248.34,788.42z"/>
			</g>
		</g>
		<g>
			<g>
				<path class="st29" d="M647.16,784.52c-1.98,22.19-5.61,44.16-9.6,66.07c-0.35,1.9,2.58,2.71,2.93,0.8
					c4.04-22.17,7.71-44.42,9.71-66.87C650.37,782.59,647.33,782.6,647.16,784.52L647.16,784.52z"/>
			</g>
		</g>
		<g>
			<g>
				<path class="st29" d="M741.93,461.55c19.09-2.49,37.86-6.89,56.03-13.23c1.83-0.64,1.04-3.55-0.81-2.91
					c-17.89,6.25-36.41,10.68-55.22,13.13C740.02,458.79,739.99,461.8,741.93,461.55L741.93,461.55z"/>
			</g>
		</g>
		<g>
			<g>
				<path class="st29" d="M731.86,498.87c12.81-1.33,25.59-3.01,38.31-5.04c10.73-1.71,21.77-3.6,30.54-10.44
					c1.54-1.2-0.63-3.32-2.15-2.13c-8.49,6.62-19.69,8.16-30.04,9.8c-12.17,1.93-24.4,3.52-36.66,4.79
					C729.93,496.05,729.91,499.07,731.86,498.87L731.86,498.87z"/>
			</g>
		</g>
		<g>
			<g>
				<path class="st29" d="M734.17,531.37c10.04-0.73,20.05-1.87,29.99-3.45c4.97-0.79,9.93-1.69,14.86-2.69
					c4.16-0.85,8.47-1.64,11.95-4.21c1.55-1.14,0.04-3.76-1.53-2.6c-3.39,2.5-7.59,3.17-11.64,3.99c-4.8,0.97-9.61,1.84-14.45,2.61
					c-9.67,1.54-19.41,2.64-29.18,3.34C732.23,528.49,732.21,531.51,734.17,531.37L734.17,531.37z"/>
			</g>
		</g>
		<g>
			<g>
				<path class="st29" d="M290.51,463.73c-0.67,9.8,3.42,19.41,10.18,26.47c6.95,7.25,16.57,11.61,26.39,13.43
					c11.37,2.11,23.04,0.95,34.26-1.47c9.98-2.15,19.8-5.11,26.3-13.43c6.3-8.06,8.64-18.48,9.3-28.46c0.13-1.94-2.91-1.93-3.04,0
					c-0.55,8.34-2.35,16.93-6.87,24.1c-5.24,8.29-13.57,11.83-22.84,14.06c-19.25,4.63-42.15,6-58.32-7.51
					c-7.99-6.68-13.03-16.72-12.32-27.18C293.68,461.8,290.64,461.8,290.51,463.73L290.51,463.73z"/>
			</g>
		</g>
		<g>
			<g>
				<path class="st29" d="M277.11,465.13c-0.11,13.48,4.71,26.77,13.66,36.95c8.63,9.8,20.71,16.26,33.66,18.22
					c12.84,1.94,26.26,0.36,38.99-1.79c6.15-1.04,12.28-2.81,17.71-5.92c5.37-3.08,10.27-7.09,14.56-11.52
					c9.75-10.08,17.12-23.29,17.71-37.48c0.08-1.94-2.96-1.94-3.04,0c-0.5,11.98-6.28,23.29-14.03,32.28
					c-7.88,9.15-17.74,16.21-29.68,18.93c-4.5,1.03-9.11,1.54-13.69,2.1c-7.04,0.87-14.16,1.47-21.26,1.1
					c-13.01-0.66-25.39-5.29-34.98-14.17c-10.76-9.96-16.71-24.16-16.58-38.72C280.17,463.19,277.13,463.19,277.11,465.13
					L277.11,465.13z"/>
			</g>
		</g>
		<g>
			<path class="st4" d="M311.97,352.07c-0.29,1.75,0.97,3.49,2.6,4.21c1.63,0.72,3.52,0.61,5.26,0.2c5.22-1.23,9.47-4.86,14.25-7.27
				c9.41-4.74,20.44-4.6,30.97-5.26c10.54-0.66,21.88-2.64,29.12-10.25c1.43-1.5,2.68-3.24,3.28-5.22c0.45-1.47,0.52-3.03,0.4-4.56
				c-0.66-8.88-7.75-16.56-16.28-19.32c-6.38-2.06-12.93-4.65-19.6-4c-7.84,0.77-17.92,3.84-24.74,7.75
				c-6.68,3.83-13.2,8.59-16.93,15.29c-3.73,6.7-8.21,14.24-8.6,22.18c-0.1,2.14,1.24,5.5,0,7.26L311.97,352.07z"/>
		</g>
		<g>
			<g>
				<path class="st29" d="M350.81,300.1c-1.43,5.77-4.15,11.06-8.22,15.44c-1.96,2.12-4.16,4.02-6.53,5.68
					c-2.52,1.76-5.28,3.17-7.65,5.14c-4.44,3.69-6.31,9.19-8.85,14.17c-1.32,2.59-2.87,4.89-4.98,6.92
					c-2.05,1.98-4.01,3.83-4.95,6.59c-0.63,1.84,2.31,2.63,2.93,0.8c1.02-3,3.95-4.77,5.94-7.1c1.76-2.06,3.08-4.42,4.25-6.85
					c1.22-2.51,2.3-5.1,3.73-7.51c1.69-2.85,3.87-4.93,6.67-6.71c4.91-3.13,9.54-6.34,13.23-10.9c3.54-4.38,6-9.42,7.35-14.86
					C354.21,299.02,351.28,298.22,350.81,300.1L350.81,300.1z"/>
			</g>
		</g>
		<g>
			<g>
				<path class="st29" d="M362.63,297.48c2.29,4.33,4.45,8.77,6.96,12.98c2.18,3.65,5.13,6.76,8.48,9.39
					c5.7,4.48,12.92,7.82,17.08,13.94c1.09,1.6,3.72,0.09,2.62-1.52c-4.12-6.07-10.9-9.68-16.71-13.92
					c-3.38-2.47-6.47-5.51-8.65-9.08c-2.62-4.29-4.81-8.88-7.16-13.31C364.35,294.24,361.72,295.77,362.63,297.48L362.63,297.48z"/>
			</g>
		</g>
		<g>
			<g>
				<path class="st29" d="M737.22,281.42c-2.98-17.34,2.45-35.64,14.35-48.67c1.31-1.43-0.83-3.57-2.15-2.13
					c-12.69,13.88-18.31,33.14-15.14,51.6C734.62,284.13,737.54,283.32,737.22,281.42L737.22,281.42z"/>
			</g>
		</g>
		<g>
			<g>
				<path class="st29" d="M749.84,269.92c1.37-6.7,4.39-12.85,8.95-17.99c1.29-1.45-0.85-3.59-2.15-2.13
					c-4.89,5.52-8.25,12.11-9.73,19.32C746.52,271.02,749.45,271.83,749.84,269.92L749.84,269.92z"/>
			</g>
		</g>
		<g>
			<polygon class="st32" points="504.71,767.58 503.11,729.25 629.24,671.01 			"/>
		</g>
	</g>
	<line class="st61" x1="154.07" y1="913.58" x2="931.79" y2="913.58"/>
</g>
</svg>
